<svg xmlns="http://www.w3.org/2000/svg" viewBox="0 0 1000 1500" width="1000" height="1500" role="img" font-family="Liberation Sans, DejaVu Sans, Arial, sans-serif">
  <defs>
    <linearGradient id="g" x1="0" y1="0" x2="0" y2="1">
      <stop offset="0" stop-color="#8b5cf6"/><stop offset="1" stop-color="#3b82f6"/>
    </linearGradient>
    <linearGradient id="gh" x1="0" y1="0" x2="1" y2="0">
      <stop offset="0" stop-color="#8b5cf6"/><stop offset="1" stop-color="#3b82f6"/>
    </linearGradient>
    <radialGradient id="glow" cx="0.5" cy="0.5" r="0.5">
      <stop offset="0" stop-color="#8b5cf6" stop-opacity="0.16"/><stop offset="1" stop-color="#8b5cf6" stop-opacity="0"/>
    </radialGradient>
    <pattern id="dots" width="26" height="26" patternUnits="userSpaceOnUse">
      <circle cx="2" cy="2" r="1.6" fill="#1a1a2e" opacity="0.05"/>
    </pattern>
    <filter id="sh" x="-20%" y="-20%" width="140%" height="140%">
      <feDropShadow dx="0" dy="10" stdDeviation="22" flood-color="#1a1a2e" flood-opacity="0.10"/>
    </filter>
  </defs>
  <rect width="1000" height="1500" fill="#FBFBFE"/>
  <rect width="1000" height="1500" fill="url(#dots)"/>
  <circle cx="850" cy="180" r="360" fill="url(#glow)"/>
  <rect width="1000" height="14" fill="url(#gh)"/>
  <text x="500" y="92" text-anchor="middle" font-size="28" font-weight="700" letter-spacing="6" fill="#64748b">ULTRATEXTGEN.COM</text>
  <rect x="353" y="128" width="294" height="50" rx="25" fill="#ffffff" stroke="#e2e8f0"/>
  <text x="500" y="161" text-anchor="middle" font-size="22" font-weight="700" letter-spacing="2" fill="#8b5cf6">NAMES &amp; USERNAMES</text>
  <text x="500" y="300" text-anchor="middle" font-size="74" font-weight="700" fill="#1a1a2e">One word, stacked,</text>
  <text x="500" y="392" text-anchor="middle" font-size="74" font-weight="700" fill="url(#g)">instantly aesthetic</text>
  <rect x="140" y="500" width="720" height="545" rx="30" fill="#ffffff" stroke="#e2e8f0" filter="url(#sh)"/>
  <g stroke="#64748b" stroke-width="11" stroke-linecap="round" opacity="0.16">
    <line x1="520" y1="600" x2="800" y2="600"/><line x1="520" y1="668" x2="780" y2="668"/>
    <line x1="520" y1="872" x2="800" y2="872"/><line x1="520" y1="940" x2="760" y2="940"/>
  </g>
  <g text-anchor="middle" font-size="118" font-weight="700" fill="url(#g)">
<text x="340" y="650">A</text>
<text x="340" y="775">V</text>
<text x="340" y="900">A</text>
</g>
  <text x="500" y="1012" text-anchor="middle" font-size="26" fill="#64748b">your name, reading top-to-bottom</text>
  <rect x="208" y="1235" width="584" height="96" rx="48" fill="url(#gh)" filter="url(#sh)"/>
  <text x="500" y="1296" text-anchor="middle" font-size="38" font-weight="700" fill="#ffffff">Try the free generator →</text>
  <text x="500" y="1432" text-anchor="middle" font-size="27" fill="#94a3b8">ultratextgen.com/usecase/vertical-text</text>
</svg>
