<svg xmlns="http://www.w3.org/2000/svg" viewBox="0 0 1000 1500" width="1000" height="1500" role="img" font-family="Liberation Sans, DejaVu Sans, Arial, sans-serif">
  <defs>
    <linearGradient id="g" x1="0" y1="0" x2="0" y2="1">
      <stop offset="0" stop-color="#8b5cf6"/><stop offset="1" stop-color="#3b82f6"/>
    </linearGradient>
    <linearGradient id="gh" x1="0" y1="0" x2="1" y2="0">
      <stop offset="0" stop-color="#8b5cf6"/><stop offset="1" stop-color="#3b82f6"/>
    </linearGradient>
    <radialGradient id="glow" cx="0.5" cy="0.5" r="0.5">
      <stop offset="0" stop-color="#8b5cf6" stop-opacity="0.16"/><stop offset="1" stop-color="#8b5cf6" stop-opacity="0"/>
    </radialGradient>
    <pattern id="dots" width="26" height="26" patternUnits="userSpaceOnUse">
      <circle cx="2" cy="2" r="1.6" fill="#1a1a2e" opacity="0.05"/>
    </pattern>
    <filter id="sh" x="-20%" y="-20%" width="140%" height="140%">
      <feDropShadow dx="0" dy="10" stdDeviation="22" flood-color="#1a1a2e" flood-opacity="0.10"/>
    </filter>
  </defs>
  <rect width="1000" height="1500" fill="#FBFBFE"/>
  <rect width="1000" height="1500" fill="url(#dots)"/>
  <circle cx="850" cy="180" r="360" fill="url(#glow)"/>
  <rect width="1000" height="14" fill="url(#gh)"/>
  <text x="500" y="92" text-anchor="middle" font-size="28" font-weight="700" letter-spacing="6" fill="#64748b">ULTRATEXTGEN.COM</text>
  <rect x="400" y="128" width="200" height="50" rx="25" fill="#ffffff" stroke="#e2e8f0"/>
  <text x="500" y="161" text-anchor="middle" font-size="22" font-weight="700" letter-spacing="2" fill="#8b5cf6">HOW-TO</text>
  <text x="500" y="300" text-anchor="middle" font-size="74" font-weight="700" fill="#1a1a2e">Vertical text in</text>
  <text x="500" y="392" text-anchor="middle" font-size="74" font-weight="700" fill="url(#g)">3 simple steps</text>
  <rect x="140" y="500" width="720" height="160" rx="24" fill="#ffffff" stroke="#e2e8f0" filter="url(#sh)"/>
  <circle cx="230" cy="580" r="44" fill="url(#g)"/><text x="230" y="596" text-anchor="middle" font-size="46" font-weight="700" fill="#ffffff">1</text>
  <text x="310" y="565" font-size="40" font-weight="700" fill="#1a1a2e">Type your word</text>
  <text x="310" y="610" font-size="27" fill="#64748b">any name, word or short phrase</text>
  <rect x="140" y="690" width="720" height="160" rx="24" fill="#ffffff" stroke="#e2e8f0" filter="url(#sh)"/>
  <circle cx="230" cy="770" r="44" fill="url(#g)"/><text x="230" y="786" text-anchor="middle" font-size="46" font-weight="700" fill="#ffffff">2</text>
  <text x="310" y="755" font-size="40" font-weight="700" fill="#1a1a2e">Copy the result</text>
  <text x="310" y="800" font-size="27" fill="#64748b">letters stacked top-to-bottom</text>
  <rect x="140" y="880" width="720" height="160" rx="24" fill="#ffffff" stroke="#e2e8f0" filter="url(#sh)"/>
  <circle cx="230" cy="960" r="44" fill="url(#g)"/><text x="230" y="976" text-anchor="middle" font-size="46" font-weight="700" fill="#ffffff">3</text>
  <text x="310" y="945" font-size="40" font-weight="700" fill="#1a1a2e">Paste anywhere</text>
  <text x="310" y="990" font-size="27" fill="#64748b">IG · TikTok · X · Discord</text>
  <rect x="280" y="1235" width="440" height="96" rx="48" fill="url(#gh)" filter="url(#sh)"/>
  <text x="500" y="1296" text-anchor="middle" font-size="38" font-weight="700" fill="#ffffff">Make yours free →</text>
  <text x="500" y="1432" text-anchor="middle" font-size="27" fill="#94a3b8">ultratextgen.com/usecase/vertical-text</text>
</svg>
