<svg xmlns="http://www.w3.org/2000/svg" viewBox="0 0 1000 1500" width="1000" height="1500" role="img" font-family="Liberation Sans, DejaVu Sans, Arial, sans-serif">
  <defs>
    <linearGradient id="g" x1="0" y1="0" x2="0" y2="1">
      <stop offset="0" stop-color="#8b5cf6"/><stop offset="1" stop-color="#3b82f6"/>
    </linearGradient>
    <linearGradient id="gh" x1="0" y1="0" x2="1" y2="0">
      <stop offset="0" stop-color="#8b5cf6"/><stop offset="1" stop-color="#3b82f6"/>
    </linearGradient>
    <radialGradient id="glow" cx="0.5" cy="0.5" r="0.5">
      <stop offset="0" stop-color="#8b5cf6" stop-opacity="0.16"/><stop offset="1" stop-color="#8b5cf6" stop-opacity="0"/>
    </radialGradient>
    <pattern id="dots" width="26" height="26" patternUnits="userSpaceOnUse">
      <circle cx="2" cy="2" r="1.6" fill="#1a1a2e" opacity="0.05"/>
    </pattern>
    <filter id="sh" x="-20%" y="-20%" width="140%" height="140%">
      <feDropShadow dx="0" dy="10" stdDeviation="22" flood-color="#1a1a2e" flood-opacity="0.10"/>
    </filter>
  </defs>

  <rect width="1000" height="1500" fill="#FBFBFE"/>
  <rect width="1000" height="1500" fill="url(#dots)"/>
  <circle cx="850" cy="180" r="360" fill="url(#glow)"/>
  <rect width="1000" height="14" fill="url(#gh)"/>

  <text x="500" y="92" text-anchor="middle" font-size="28" font-weight="700" letter-spacing="6" fill="#64748b">ULTRATEXTGEN.COM</text>

  <rect x="350" y="128" width="300" height="50" rx="25" fill="#ffffff" stroke="#e2e8f0"/>
  <text x="500" y="161" text-anchor="middle" font-size="22" font-weight="700" letter-spacing="2" fill="#8b5cf6">TATTOO LETTERING</text>

  <text x="500" y="300" text-anchor="middle" font-size="76" font-weight="700" fill="#1a1a2e">Preview your tattoo</text>
  <text x="500" y="390" text-anchor="middle" font-size="76" font-weight="700" fill="url(#g)">before you ink it</text>

  <!-- demo card: forearm + stacked name -->
  <rect x="140" y="500" width="720" height="540" rx="30" fill="#ffffff" stroke="#e2e8f0" filter="url(#sh)"/>
  <!-- stylised arm -->
  <rect x="600" y="540" width="150" height="460" rx="75" fill="#f1ece7" stroke="#e7ded4"/>
  <!-- stacked name down the arm -->
  <g text-anchor="middle" font-size="74" font-weight="600" fill="#1a1a2e" font-style="italic">
    <text x="675" y="640">G</text><text x="675" y="712">R</text><text x="675" y="784">A</text><text x="675" y="856">C</text><text x="675" y="928">E</text>
  </g>
  <!-- generator echo on the left -->
  <g text-anchor="middle" font-size="74" font-weight="600" fill="url(#g)">
    <text x="290" y="640">G</text><text x="290" y="712">R</text><text x="290" y="784">A</text><text x="290" y="856">C</text><text x="290" y="928">E</text>
  </g>
  <text x="290" y="985" text-anchor="middle" font-size="24" fill="#64748b">type any word</text>
  <text x="675" y="985" text-anchor="middle" font-size="24" fill="#64748b">see it on skin</text>

  <!-- CTA -->
  <rect x="230" y="1230" width="540" height="96" rx="48" fill="url(#gh)" filter="url(#sh)"/>
  <text x="500" y="1291" text-anchor="middle" font-size="38" font-weight="700" fill="#ffffff">Try the free generator →</text>

  <text x="500" y="1430" text-anchor="middle" font-size="27" fill="#94a3b8">ultratextgen.com/usecase/vertical-text</text>
</svg>
