<svg xmlns="http://www.w3.org/2000/svg" viewBox="0 0 1000 1500" width="1000" height="1500" role="img" font-family="Liberation Sans, DejaVu Sans, Arial, sans-serif">
  <defs>
    <linearGradient id="g" x1="0" y1="0" x2="0" y2="1">
      <stop offset="0" stop-color="#8b5cf6"/><stop offset="1" stop-color="#3b82f6"/>
    </linearGradient>
    <linearGradient id="gh" x1="0" y1="0" x2="1" y2="0">
      <stop offset="0" stop-color="#8b5cf6"/><stop offset="1" stop-color="#3b82f6"/>
    </linearGradient>
    <radialGradient id="glow" cx="0.5" cy="0.5" r="0.5">
      <stop offset="0" stop-color="#8b5cf6" stop-opacity="0.16"/><stop offset="1" stop-color="#8b5cf6" stop-opacity="0"/>
    </radialGradient>
    <pattern id="dots" width="26" height="26" patternUnits="userSpaceOnUse">
      <circle cx="2" cy="2" r="1.6" fill="#1a1a2e" opacity="0.05"/>
    </pattern>
    <filter id="sh" x="-20%" y="-20%" width="140%" height="140%">
      <feDropShadow dx="0" dy="10" stdDeviation="22" flood-color="#1a1a2e" flood-opacity="0.10"/>
    </filter>
  </defs>

  <rect width="1000" height="1500" fill="#FBFBFE"/>
  <rect width="1000" height="1500" fill="url(#dots)"/>
  <circle cx="850" cy="180" r="360" fill="url(#glow)"/>
  <rect width="1000" height="14" fill="url(#gh)"/>

  <text x="500" y="92" text-anchor="middle" font-size="28" font-weight="700" letter-spacing="6" fill="#64748b">ULTRATEXTGEN.COM</text>

  <rect x="350" y="128" width="300" height="50" rx="25" fill="#ffffff" stroke="#e2e8f0"/>
  <text x="500" y="161" text-anchor="middle" font-size="22" font-weight="700" letter-spacing="2" fill="#8b5cf6">THE PSYCHOLOGY</text>

  <text x="500" y="300" text-anchor="middle" font-size="74" font-weight="700" fill="#1a1a2e">Why your eye can't</text>
  <text x="500" y="388" text-anchor="middle" font-size="74" font-weight="700" fill="url(#g)">ignore vertical text</text>

  <!-- stat card -->
  <rect x="140" y="490" width="720" height="560" rx="30" fill="#ffffff" stroke="#e2e8f0" filter="url(#sh)"/>

  <text x="500" y="610" text-anchor="middle" font-size="120" font-weight="700" fill="url(#g)">70%</text>
  <text x="500" y="660" text-anchor="middle" font-size="28" fill="#64748b">faster to read horizontal than vertical*</text>

  <line x1="220" y1="710" x2="780" y2="710" stroke="#e2e8f0" stroke-width="2"/>

  <!-- 3 mini facts -->
  <g font-size="29" fill="#1a1a2e">
    <circle cx="245" cy="770" r="9" fill="#8b5cf6"/><text x="280" y="780">Orientation contrast is pre-attentive</text>
    <circle cx="245" cy="845" r="9" fill="#8b5cf6"/><text x="280" y="855">Reading slows → attention resets</text>
    <circle cx="245" cy="920" r="9" fill="#8b5cf6"/><text x="280" y="930">The scroll rhythm gets interrupted</text>
  </g>
  <text x="500" y="1010" text-anchor="middle" font-size="22" fill="#94a3b8">*Yu et al., 2010 · Porter &amp; Arblaster, 2020</text>

  <!-- CTA -->
  <rect x="270" y="1240" width="460" height="96" rx="48" fill="url(#gh)" filter="url(#sh)"/>
  <text x="500" y="1301" text-anchor="middle" font-size="38" font-weight="700" fill="#ffffff">Read the science →</text>

  <text x="500" y="1430" text-anchor="middle" font-size="27" fill="#94a3b8">ultratextgen.com/guide/vertical-text-guide</text>
</svg>
