<svg xmlns="http://www.w3.org/2000/svg" viewBox="0 0 1200 340"
     width="1200" height="340" role="img">
  
  <defs>
    <linearGradient id="gbranding" x1="0" y1="0" x2="1" y2="1">
      <stop offset="0" stop-color="#8b5cf6"/>
      <stop offset="1" stop-color="#3b82f6"/>
    </linearGradient>
    <linearGradient id="gvbranding" x1="0" y1="0" x2="0" y2="1">
      <stop offset="0" stop-color="#8b5cf6"/>
      <stop offset="1" stop-color="#3b82f6"/>
    </linearGradient>
    <radialGradient id="glowbranding" cx="0.5" cy="0.5" r="0.5">
      <stop offset="0" stop-color="#8b5cf6" stop-opacity="0.18"/>
      <stop offset="1" stop-color="#8b5cf6" stop-opacity="0"/>
    </radialGradient>
    <pattern id="dotsbranding" width="22" height="22" patternUnits="userSpaceOnUse">
      <circle cx="2" cy="2" r="1.4" fill="#1a1a2e" opacity="0.06"/>
    </pattern>
  </defs>
  <rect width="1200" height="340" rx="20" fill="#FBFBFE"/>
  <rect width="1200" height="340" rx="20" fill="url(#dotsbranding)"/>
  <circle cx="1010" cy="60" r="260" fill="url(#glowbranding)"/>
  <rect x="0" y="0" width="8" height="340" fill="url(#gvbranding)"/>
  <g transform="translate(740 -10) scale(1.02)">
        <g transform="translate(40 130)">
          <rect width="84" height="100" rx="16" fill="#fff" stroke="#1a1a2e"
                stroke-opacity="0.12"/>
          <path d="M22 40 L42 24 L62 40 L54 64 L30 64 Z" fill="#8b5cf6"/>
          <rect x="22" y="76" width="40" height="8" rx="4" fill="#8b5cf6" opacity="0.8"/>
        </g>
        <g transform="translate(132 130)">
          <rect width="84" height="100" rx="16" fill="url(#gbranding)" stroke="none"
                stroke-opacity="0.12"/>
          <path d="M22 40 L42 24 L62 40 L54 64 L30 64 Z" fill="#fff"/>
          <rect x="22" y="76" width="40" height="8" rx="4" fill="#fff" opacity="0.8"/>
        </g>
        <g transform="translate(224 130)">
          <rect width="84" height="100" rx="16" fill="#fff" stroke="#1a1a2e"
                stroke-opacity="0.12"/>
          <path d="M22 40 L42 24 L62 40 L54 64 L30 64 Z" fill="#8b5cf6"/>
          <rect x="22" y="76" width="40" height="8" rx="4" fill="#8b5cf6" opacity="0.8"/>
        </g>
    <text x="180" y="290" font-family="Liberation Sans, DejaVu Sans, sans-serif" font-size="20" fill="#64748b"
          text-anchor="middle">repetition &#8594; recognition</text></g>
  <g transform="translate(420 -10) scale(0.62)" opacity="0.10">
        <g transform="translate(40 130)">
          <rect width="84" height="100" rx="16" fill="#fff" stroke="#1a1a2e"
                stroke-opacity="0.12"/>
          <path d="M22 40 L42 24 L62 40 L54 64 L30 64 Z" fill="#8b5cf6"/>
          <rect x="22" y="76" width="40" height="8" rx="4" fill="#8b5cf6" opacity="0.8"/>
        </g>
        <g transform="translate(132 130)">
          <rect width="84" height="100" rx="16" fill="url(#gbranding)" stroke="none"
                stroke-opacity="0.12"/>
          <path d="M22 40 L42 24 L62 40 L54 64 L30 64 Z" fill="#fff"/>
          <rect x="22" y="76" width="40" height="8" rx="4" fill="#fff" opacity="0.8"/>
        </g>
        <g transform="translate(224 130)">
          <rect width="84" height="100" rx="16" fill="#fff" stroke="#1a1a2e"
                stroke-opacity="0.12"/>
          <path d="M22 40 L42 24 L62 40 L54 64 L30 64 Z" fill="#8b5cf6"/>
          <rect x="22" y="76" width="40" height="8" rx="4" fill="#8b5cf6" opacity="0.8"/>
        </g>
    <text x="180" y="290" font-family="Liberation Sans, DejaVu Sans, sans-serif" font-size="20" fill="#64748b"
          text-anchor="middle">repetition &#8594; recognition</text></g>
</svg>