<svg xmlns="http://www.w3.org/2000/svg" viewBox="0 0 1200 340"
     width="1200" height="340" role="img">
  
  <defs>
    <linearGradient id="gcomments" x1="0" y1="0" x2="1" y2="1">
      <stop offset="0" stop-color="#8b5cf6"/>
      <stop offset="1" stop-color="#3b82f6"/>
    </linearGradient>
    <linearGradient id="gvcomments" x1="0" y1="0" x2="0" y2="1">
      <stop offset="0" stop-color="#8b5cf6"/>
      <stop offset="1" stop-color="#3b82f6"/>
    </linearGradient>
    <radialGradient id="glowcomments" cx="0.5" cy="0.5" r="0.5">
      <stop offset="0" stop-color="#8b5cf6" stop-opacity="0.18"/>
      <stop offset="1" stop-color="#8b5cf6" stop-opacity="0"/>
    </radialGradient>
    <pattern id="dotscomments" width="22" height="22" patternUnits="userSpaceOnUse">
      <circle cx="2" cy="2" r="1.4" fill="#1a1a2e" opacity="0.06"/>
    </pattern>
  </defs>
  <rect width="1200" height="340" rx="20" fill="#FBFBFE"/>
  <rect width="1200" height="340" rx="20" fill="url(#dotscomments)"/>
  <circle cx="1010" cy="60" r="260" fill="url(#glowcomments)"/>
  <rect x="0" y="0" width="8" height="340" fill="url(#gvcomments)"/>
  <g transform="translate(740 -10) scale(1.02)">
    <g>
      <rect x="40" y="70" width="180" height="64" rx="18" fill="#fff"
            stroke="#1a1a2e" stroke-opacity="0.12"/>
      <rect x="62" y="92" width="120" height="9" rx="4" fill="#64748b" opacity="0.5"/>
      <rect x="62" y="110" width="80" height="9" rx="4" fill="#64748b" opacity="0.3"/>
    </g>
    <g>
      <rect x="90" y="150" width="230" height="80" rx="20" fill="url(#gcomments)"/>
      <rect x="114" y="176" width="150" height="11" rx="5" fill="#fff"/>
      <rect x="114" y="198" width="100" height="11" rx="5" fill="#fff" opacity="0.7"/>
      <polygon points="120,228 120,256 146,228" fill="url(#gcomments)"/>
    </g>
    <g>
      <rect x="60" y="248" width="170" height="60" rx="18" fill="#fff"
            stroke="#1a1a2e" stroke-opacity="0.12"/>
      <rect x="82" y="268" width="110" height="9" rx="4" fill="#64748b" opacity="0.5"/>
    </g></g>
  <g transform="translate(420 -10) scale(0.62)" opacity="0.10">
    <g>
      <rect x="40" y="70" width="180" height="64" rx="18" fill="#fff"
            stroke="#1a1a2e" stroke-opacity="0.12"/>
      <rect x="62" y="92" width="120" height="9" rx="4" fill="#64748b" opacity="0.5"/>
      <rect x="62" y="110" width="80" height="9" rx="4" fill="#64748b" opacity="0.3"/>
    </g>
    <g>
      <rect x="90" y="150" width="230" height="80" rx="20" fill="url(#gcomments)"/>
      <rect x="114" y="176" width="150" height="11" rx="5" fill="#fff"/>
      <rect x="114" y="198" width="100" height="11" rx="5" fill="#fff" opacity="0.7"/>
      <polygon points="120,228 120,256 146,228" fill="url(#gcomments)"/>
    </g>
    <g>
      <rect x="60" y="248" width="170" height="60" rx="18" fill="#fff"
            stroke="#1a1a2e" stroke-opacity="0.12"/>
      <rect x="82" y="268" width="110" height="9" rx="4" fill="#64748b" opacity="0.5"/>
    </g></g>
</svg>