<svg xmlns="http://www.w3.org/2000/svg" viewBox="0 0 1200 340"
     width="1200" height="340" role="img">
  
  <defs>
    <linearGradient id="gfancyfon" x1="0" y1="0" x2="1" y2="1">
      <stop offset="0" stop-color="#8b5cf6"/>
      <stop offset="1" stop-color="#3b82f6"/>
    </linearGradient>
    <linearGradient id="gvfancyfon" x1="0" y1="0" x2="0" y2="1">
      <stop offset="0" stop-color="#8b5cf6"/>
      <stop offset="1" stop-color="#3b82f6"/>
    </linearGradient>
    <radialGradient id="glowfancyfon" cx="0.5" cy="0.5" r="0.5">
      <stop offset="0" stop-color="#8b5cf6" stop-opacity="0.18"/>
      <stop offset="1" stop-color="#8b5cf6" stop-opacity="0"/>
    </radialGradient>
    <pattern id="dotsfancyfon" width="22" height="22" patternUnits="userSpaceOnUse">
      <circle cx="2" cy="2" r="1.4" fill="#1a1a2e" opacity="0.06"/>
    </pattern>
  </defs>
  <rect width="1200" height="340" rx="20" fill="#FBFBFE"/>
  <rect width="1200" height="340" rx="20" fill="url(#dotsfancyfon)"/>
  <circle cx="1010" cy="60" r="260" fill="url(#glowfancyfon)"/>
  <rect x="0" y="0" width="8" height="340" fill="url(#gvfancyfon)"/>
  <g transform="translate(740 -10) scale(1.02)">
    <g transform="translate(60 120)">
      <rect width="120" height="120" rx="22" fill="#fff" stroke="#1a1a2e"
            stroke-opacity="0.12"/>
      <text x="60" y="84" font-family="Georgia, Liberation Sans, DejaVu Sans, sans-serif" font-size="74"
            font-weight="700" fill="url(#gfancyfon)" text-anchor="middle">B</text>
    </g>
    <path d="M196 180 L214 168 L214 192 Z" fill="#1a1a2e" opacity="0.6"/>
    <rect x="226" y="169.0" width="12" height="22" rx="6" fill="url(#gvfancyfon)"/><rect x="252" y="157.0" width="12" height="46" rx="6" fill="url(#gvfancyfon)"/><rect x="278" y="145.0" width="12" height="70" rx="6" fill="url(#gvfancyfon)"/><rect x="304" y="160.0" width="12" height="40" rx="6" fill="url(#gvfancyfon)"/><rect x="330" y="171.0" width="12" height="18" rx="6" fill="url(#gvfancyfon)"/>
    <text x="180" y="290" font-family="Liberation Sans, DejaVu Sans, sans-serif" font-size="18" fill="#64748b"
          text-anchor="middle">&#8220;mathematical bold capital B&#8230;&#8221;</text></g>
  <g transform="translate(420 -10) scale(0.62)" opacity="0.10">
    <g transform="translate(60 120)">
      <rect width="120" height="120" rx="22" fill="#fff" stroke="#1a1a2e"
            stroke-opacity="0.12"/>
      <text x="60" y="84" font-family="Georgia, Liberation Sans, DejaVu Sans, sans-serif" font-size="74"
            font-weight="700" fill="url(#gfancyfon)" text-anchor="middle">B</text>
    </g>
    <path d="M196 180 L214 168 L214 192 Z" fill="#1a1a2e" opacity="0.6"/>
    <rect x="226" y="169.0" width="12" height="22" rx="6" fill="url(#gvfancyfon)"/><rect x="252" y="157.0" width="12" height="46" rx="6" fill="url(#gvfancyfon)"/><rect x="278" y="145.0" width="12" height="70" rx="6" fill="url(#gvfancyfon)"/><rect x="304" y="160.0" width="12" height="40" rx="6" fill="url(#gvfancyfon)"/><rect x="330" y="171.0" width="12" height="18" rx="6" fill="url(#gvfancyfon)"/>
    <text x="180" y="290" font-family="Liberation Sans, DejaVu Sans, sans-serif" font-size="18" fill="#64748b"
          text-anchor="middle">&#8220;mathematical bold capital B&#8230;&#8221;</text></g>
</svg>