<svg xmlns="http://www.w3.org/2000/svg" viewBox="0 0 1200 340"
     width="1200" height="340" role="img">
  
  <defs>
    <linearGradient id="gindex" x1="0" y1="0" x2="1" y2="1">
      <stop offset="0" stop-color="#8b5cf6"/>
      <stop offset="1" stop-color="#3b82f6"/>
    </linearGradient>
    <linearGradient id="gvindex" x1="0" y1="0" x2="0" y2="1">
      <stop offset="0" stop-color="#8b5cf6"/>
      <stop offset="1" stop-color="#3b82f6"/>
    </linearGradient>
    <radialGradient id="glowindex" cx="0.5" cy="0.5" r="0.5">
      <stop offset="0" stop-color="#8b5cf6" stop-opacity="0.18"/>
      <stop offset="1" stop-color="#8b5cf6" stop-opacity="0"/>
    </radialGradient>
    <pattern id="dotsindex" width="22" height="22" patternUnits="userSpaceOnUse">
      <circle cx="2" cy="2" r="1.4" fill="#1a1a2e" opacity="0.06"/>
    </pattern>
  </defs>
  <rect width="1200" height="340" rx="20" fill="#FBFBFE"/>
  <rect width="1200" height="340" rx="20" fill="url(#dotsindex)"/>
  <circle cx="1010" cy="60" r="260" fill="url(#glowindex)"/>
  <rect x="0" y="0" width="8" height="340" fill="url(#gvindex)"/>
  <g transform="translate(740 -10) scale(1.02)">
    <g stroke="#8b5cf6" stroke-width="1.5" opacity="0.35">
      <line x1="70" y1="80" x2="180" y2="150"/>
      <line x1="180" y1="150" x2="300" y2="90"/>
      <line x1="180" y1="150" x2="120" y2="270"/>
      <line x1="180" y1="150" x2="280" y2="250"/>
    </g>
    <text x="70" y="95" font-family="Liberation Sans, DejaVu Sans, sans-serif" font-size="64" font-weight="700"
          fill="none" stroke="#1a1a2e" stroke-width="2" text-anchor="middle">A</text>
    <text x="300" y="105" font-family="Liberation Sans, DejaVu Sans, sans-serif" font-size="58" font-style="italic"
          fill="#3b82f6" text-anchor="middle">g</text>
    <g transform="translate(120 270) rotate(180)">
      <text font-family="Liberation Sans, DejaVu Sans, sans-serif" font-size="56" font-weight="700"
            fill="#64748b" text-anchor="middle">R</text>
    </g>
    <g transform="translate(280 250)">
      <text font-family="Liberation Sans, DejaVu Sans, sans-serif" font-size="56" font-weight="700"
            fill="#1a1a2e" text-anchor="middle">S</text>
      <line x1="-26" y1="-18" x2="26" y2="-18" stroke="#8b5cf6" stroke-width="4"/>
    </g>
    <circle cx="180" cy="150" r="46" fill="url(#gindex)"/>
    <text x="180" y="170" font-family="Liberation Sans, DejaVu Sans, sans-serif" font-size="52" font-weight="700"
          fill="#fff" text-anchor="middle">e</text></g>
  <g transform="translate(420 -10) scale(0.62)" opacity="0.10">
    <g stroke="#8b5cf6" stroke-width="1.5" opacity="0.35">
      <line x1="70" y1="80" x2="180" y2="150"/>
      <line x1="180" y1="150" x2="300" y2="90"/>
      <line x1="180" y1="150" x2="120" y2="270"/>
      <line x1="180" y1="150" x2="280" y2="250"/>
    </g>
    <text x="70" y="95" font-family="Liberation Sans, DejaVu Sans, sans-serif" font-size="64" font-weight="700"
          fill="none" stroke="#1a1a2e" stroke-width="2" text-anchor="middle">A</text>
    <text x="300" y="105" font-family="Liberation Sans, DejaVu Sans, sans-serif" font-size="58" font-style="italic"
          fill="#3b82f6" text-anchor="middle">g</text>
    <g transform="translate(120 270) rotate(180)">
      <text font-family="Liberation Sans, DejaVu Sans, sans-serif" font-size="56" font-weight="700"
            fill="#64748b" text-anchor="middle">R</text>
    </g>
    <g transform="translate(280 250)">
      <text font-family="Liberation Sans, DejaVu Sans, sans-serif" font-size="56" font-weight="700"
            fill="#1a1a2e" text-anchor="middle">S</text>
      <line x1="-26" y1="-18" x2="26" y2="-18" stroke="#8b5cf6" stroke-width="4"/>
    </g>
    <circle cx="180" cy="150" r="46" fill="url(#gindex)"/>
    <text x="180" y="170" font-family="Liberation Sans, DejaVu Sans, sans-serif" font-size="52" font-weight="700"
          fill="#fff" text-anchor="middle">e</text></g>
</svg>