<svg xmlns="http://www.w3.org/2000/svg" viewBox="0 0 1200 340"
     width="1200" height="340" role="img">
  
  <defs>
    <linearGradient id="glinkedin" x1="0" y1="0" x2="1" y2="1">
      <stop offset="0" stop-color="#8b5cf6"/>
      <stop offset="1" stop-color="#3b82f6"/>
    </linearGradient>
    <linearGradient id="gvlinkedin" x1="0" y1="0" x2="0" y2="1">
      <stop offset="0" stop-color="#8b5cf6"/>
      <stop offset="1" stop-color="#3b82f6"/>
    </linearGradient>
    <radialGradient id="glowlinkedin" cx="0.5" cy="0.5" r="0.5">
      <stop offset="0" stop-color="#8b5cf6" stop-opacity="0.18"/>
      <stop offset="1" stop-color="#8b5cf6" stop-opacity="0"/>
    </radialGradient>
    <pattern id="dotslinkedin" width="22" height="22" patternUnits="userSpaceOnUse">
      <circle cx="2" cy="2" r="1.4" fill="#1a1a2e" opacity="0.06"/>
    </pattern>
  </defs>
  <rect width="1200" height="340" rx="20" fill="#FBFBFE"/>
  <rect width="1200" height="340" rx="20" fill="url(#dotslinkedin)"/>
  <circle cx="1010" cy="60" r="260" fill="url(#glowlinkedin)"/>
  <rect x="0" y="0" width="8" height="340" fill="url(#gvlinkedin)"/>
  <g transform="translate(740 -10) scale(1.02)">
    <rect x="40" y="230" width="84" height="70" rx="14" fill="#e9e7fb"/><rect x="132" y="170" width="84" height="130" rx="14" fill="#d7d4f7"/><rect x="224" y="110" width="84" height="190" rx="14" fill="url(#gvlinkedin)"/>
    <g transform="translate(266 64)">
      <path d="M0 30 L10 8 L20 24 L30 4 L40 24 L50 8 L60 30 Z" fill="url(#glinkedin)"/>
    </g>
    <text x="82" y="220" font-family="Liberation Sans, DejaVu Sans, sans-serif" font-size="30" font-weight="700"
          fill="#64748b" text-anchor="middle">3</text>
    <text x="174" y="160" font-family="Liberation Sans, DejaVu Sans, sans-serif" font-size="34" font-weight="700"
          fill="#1a1a2e" text-anchor="middle">2</text>
    <text x="266" y="100" font-family="Liberation Sans, DejaVu Sans, sans-serif" font-size="40" font-weight="700"
          fill="#fff" text-anchor="middle">1</text></g>
  <g transform="translate(420 -10) scale(0.62)" opacity="0.10">
    <rect x="40" y="230" width="84" height="70" rx="14" fill="#e9e7fb"/><rect x="132" y="170" width="84" height="130" rx="14" fill="#d7d4f7"/><rect x="224" y="110" width="84" height="190" rx="14" fill="url(#gvlinkedin)"/>
    <g transform="translate(266 64)">
      <path d="M0 30 L10 8 L20 24 L30 4 L40 24 L50 8 L60 30 Z" fill="url(#glinkedin)"/>
    </g>
    <text x="82" y="220" font-family="Liberation Sans, DejaVu Sans, sans-serif" font-size="30" font-weight="700"
          fill="#64748b" text-anchor="middle">3</text>
    <text x="174" y="160" font-family="Liberation Sans, DejaVu Sans, sans-serif" font-size="34" font-weight="700"
          fill="#1a1a2e" text-anchor="middle">2</text>
    <text x="266" y="100" font-family="Liberation Sans, DejaVu Sans, sans-serif" font-size="40" font-weight="700"
          fill="#fff" text-anchor="middle">1</text></g>
</svg>