<svg xmlns="http://www.w3.org/2000/svg" viewBox="0 0 1200 340"
     width="1200" height="340" role="img">
  
  <defs>
    <linearGradient id="gpersonal" x1="0" y1="0" x2="1" y2="1">
      <stop offset="0" stop-color="#8b5cf6"/>
      <stop offset="1" stop-color="#3b82f6"/>
    </linearGradient>
    <linearGradient id="gvpersonal" x1="0" y1="0" x2="0" y2="1">
      <stop offset="0" stop-color="#8b5cf6"/>
      <stop offset="1" stop-color="#3b82f6"/>
    </linearGradient>
    <radialGradient id="glowpersonal" cx="0.5" cy="0.5" r="0.5">
      <stop offset="0" stop-color="#8b5cf6" stop-opacity="0.18"/>
      <stop offset="1" stop-color="#8b5cf6" stop-opacity="0"/>
    </radialGradient>
    <pattern id="dotspersonal" width="22" height="22" patternUnits="userSpaceOnUse">
      <circle cx="2" cy="2" r="1.4" fill="#1a1a2e" opacity="0.06"/>
    </pattern>
  </defs>
  <rect width="1200" height="340" rx="20" fill="#FBFBFE"/>
  <rect width="1200" height="340" rx="20" fill="url(#dotspersonal)"/>
  <circle cx="1010" cy="60" r="260" fill="url(#glowpersonal)"/>
  <rect x="0" y="0" width="8" height="340" fill="url(#gvpersonal)"/>
  <g transform="translate(740 -10) scale(1.02)">
    <path d="M50 250 C 90 90, 150 90, 150 180 C 150 250, 120 250, 140 170
             C 160 90, 230 90, 300 250"
          fill="none" stroke="url(#gpersonal)" stroke-width="10"
          stroke-linecap="round"/>
    <circle cx="300" cy="250" r="10" fill="#3b82f6"/>
    <text x="180" y="300" font-family="Liberation Sans, DejaVu Sans, sans-serif" font-size="20" fill="#64748b"
          text-anchor="middle">a signature people recognize</text></g>
  <g transform="translate(420 -10) scale(0.62)" opacity="0.10">
    <path d="M50 250 C 90 90, 150 90, 150 180 C 150 250, 120 250, 140 170
             C 160 90, 230 90, 300 250"
          fill="none" stroke="url(#gpersonal)" stroke-width="10"
          stroke-linecap="round"/>
    <circle cx="300" cy="250" r="10" fill="#3b82f6"/>
    <text x="180" y="300" font-family="Liberation Sans, DejaVu Sans, sans-serif" font-size="20" fill="#64748b"
          text-anchor="middle">a signature people recognize</text></g>
</svg>