<svg xmlns="http://www.w3.org/2000/svg" viewBox="0 0 1200 340"
     width="1200" height="340" role="img">
  
  <defs>
    <linearGradient id="gstopthes" x1="0" y1="0" x2="1" y2="1">
      <stop offset="0" stop-color="#8b5cf6"/>
      <stop offset="1" stop-color="#3b82f6"/>
    </linearGradient>
    <linearGradient id="gvstopthes" x1="0" y1="0" x2="0" y2="1">
      <stop offset="0" stop-color="#8b5cf6"/>
      <stop offset="1" stop-color="#3b82f6"/>
    </linearGradient>
    <radialGradient id="glowstopthes" cx="0.5" cy="0.5" r="0.5">
      <stop offset="0" stop-color="#8b5cf6" stop-opacity="0.18"/>
      <stop offset="1" stop-color="#8b5cf6" stop-opacity="0"/>
    </radialGradient>
    <pattern id="dotsstopthes" width="22" height="22" patternUnits="userSpaceOnUse">
      <circle cx="2" cy="2" r="1.4" fill="#1a1a2e" opacity="0.06"/>
    </pattern>
  </defs>
  <rect width="1200" height="340" rx="20" fill="#FBFBFE"/>
  <rect width="1200" height="340" rx="20" fill="url(#dotsstopthes)"/>
  <circle cx="1010" cy="60" r="260" fill="url(#glowstopthes)"/>
  <rect x="0" y="0" width="8" height="340" fill="url(#gvstopthes)"/>
  <g transform="translate(740 -10) scale(1.02)">
    <rect x="60" y="60" width="120" height="11" rx="5" fill="#64748b" opacity="0.35"/>
    <rect x="60" y="86" width="160" height="11" rx="5" fill="#64748b" opacity="0.35"/>
    <rect x="60" y="120" width="210" height="26" rx="8" fill="url(#gstopthes)"/>
    <rect x="60" y="170" width="140" height="11" rx="5" fill="#64748b" opacity="0.35"/>
    <rect x="60" y="196" width="180" height="11" rx="5" fill="#64748b" opacity="0.35"/>
    <g transform="translate(180 270)">
      <path d="M-70 0 Q0 -46 70 0 Q0 46 -70 0 Z" fill="none"
            stroke="#1a1a2e" stroke-width="4" opacity="0.8"/>
      <circle cx="0" cy="0" r="18" fill="url(#gstopthes)"/>
    </g></g>
  <g transform="translate(420 -10) scale(0.62)" opacity="0.10">
    <rect x="60" y="60" width="120" height="11" rx="5" fill="#64748b" opacity="0.35"/>
    <rect x="60" y="86" width="160" height="11" rx="5" fill="#64748b" opacity="0.35"/>
    <rect x="60" y="120" width="210" height="26" rx="8" fill="url(#gstopthes)"/>
    <rect x="60" y="170" width="140" height="11" rx="5" fill="#64748b" opacity="0.35"/>
    <rect x="60" y="196" width="180" height="11" rx="5" fill="#64748b" opacity="0.35"/>
    <g transform="translate(180 270)">
      <path d="M-70 0 Q0 -46 70 0 Q0 46 -70 0 Z" fill="none"
            stroke="#1a1a2e" stroke-width="4" opacity="0.8"/>
      <circle cx="0" cy="0" r="18" fill="url(#gstopthes)"/>
    </g></g>
</svg>