<svg xmlns="http://www.w3.org/2000/svg" viewBox="0 0 1200 340"
     width="1200" height="340" role="img">
  
  <defs>
    <linearGradient id="gwhyfonts" x1="0" y1="0" x2="1" y2="1">
      <stop offset="0" stop-color="#8b5cf6"/>
      <stop offset="1" stop-color="#3b82f6"/>
    </linearGradient>
    <linearGradient id="gvwhyfonts" x1="0" y1="0" x2="0" y2="1">
      <stop offset="0" stop-color="#8b5cf6"/>
      <stop offset="1" stop-color="#3b82f6"/>
    </linearGradient>
    <radialGradient id="glowwhyfonts" cx="0.5" cy="0.5" r="0.5">
      <stop offset="0" stop-color="#8b5cf6" stop-opacity="0.18"/>
      <stop offset="1" stop-color="#8b5cf6" stop-opacity="0"/>
    </radialGradient>
    <pattern id="dotswhyfonts" width="22" height="22" patternUnits="userSpaceOnUse">
      <circle cx="2" cy="2" r="1.4" fill="#1a1a2e" opacity="0.06"/>
    </pattern>
  </defs>
  <rect width="1200" height="340" rx="20" fill="#FBFBFE"/>
  <rect width="1200" height="340" rx="20" fill="url(#dotswhyfonts)"/>
  <circle cx="1010" cy="60" r="260" fill="url(#glowwhyfonts)"/>
  <rect x="0" y="0" width="8" height="340" fill="url(#gvwhyfonts)"/>
  <g transform="translate(740 -10) scale(1.02)">
    <g transform="translate(70 150)">
      <rect x="-6" y="0" width="120" height="60" rx="14" fill="url(#gwhyfonts)"/>
      <text x="54" y="44" font-family="Georgia, Liberation Sans, DejaVu Sans, sans-serif" font-size="44"
            font-weight="700" font-style="italic" fill="#fff"
            text-anchor="middle">Aa</text>
    </g>
    <text x="176" y="190" font-family="Liberation Sans, DejaVu Sans, sans-serif" font-size="34" fill="#64748b"
          text-anchor="middle">&#8594;</text>
    <rect x="196" y="150" width="44" height="60" rx="6"
              fill="none" stroke="#64748b" stroke-width="4" opacity="0.55"/>
            <line x1="196" y1="150" x2="240" y2="210" stroke="#64748b"
              stroke-width="3" opacity="0.4"/>
            <line x1="240" y1="150" x2="196" y2="210" stroke="#64748b"
              stroke-width="3" opacity="0.4"/><rect x="252" y="150" width="44" height="60" rx="6"
              fill="none" stroke="#64748b" stroke-width="4" opacity="0.55"/>
            <line x1="252" y1="150" x2="296" y2="210" stroke="#64748b"
              stroke-width="3" opacity="0.4"/>
            <line x1="296" y1="150" x2="252" y2="210" stroke="#64748b"
              stroke-width="3" opacity="0.4"/><rect x="308" y="150" width="44" height="60" rx="6"
              fill="none" stroke="#64748b" stroke-width="4" opacity="0.55"/>
            <line x1="308" y1="150" x2="352" y2="210" stroke="#64748b"
              stroke-width="3" opacity="0.4"/>
            <line x1="352" y1="150" x2="308" y2="210" stroke="#64748b"
              stroke-width="3" opacity="0.4"/>
    <text x="180" y="280" font-family="Liberation Sans, DejaVu Sans, sans-serif" font-size="19" fill="#64748b"
          text-anchor="middle">a glyph the device can&#8217;t draw</text></g>
  <g transform="translate(420 -10) scale(0.62)" opacity="0.10">
    <g transform="translate(70 150)">
      <rect x="-6" y="0" width="120" height="60" rx="14" fill="url(#gwhyfonts)"/>
      <text x="54" y="44" font-family="Georgia, Liberation Sans, DejaVu Sans, sans-serif" font-size="44"
            font-weight="700" font-style="italic" fill="#fff"
            text-anchor="middle">Aa</text>
    </g>
    <text x="176" y="190" font-family="Liberation Sans, DejaVu Sans, sans-serif" font-size="34" fill="#64748b"
          text-anchor="middle">&#8594;</text>
    <rect x="196" y="150" width="44" height="60" rx="6"
              fill="none" stroke="#64748b" stroke-width="4" opacity="0.55"/>
            <line x1="196" y1="150" x2="240" y2="210" stroke="#64748b"
              stroke-width="3" opacity="0.4"/>
            <line x1="240" y1="150" x2="196" y2="210" stroke="#64748b"
              stroke-width="3" opacity="0.4"/><rect x="252" y="150" width="44" height="60" rx="6"
              fill="none" stroke="#64748b" stroke-width="4" opacity="0.55"/>
            <line x1="252" y1="150" x2="296" y2="210" stroke="#64748b"
              stroke-width="3" opacity="0.4"/>
            <line x1="296" y1="150" x2="252" y2="210" stroke="#64748b"
              stroke-width="3" opacity="0.4"/><rect x="308" y="150" width="44" height="60" rx="6"
              fill="none" stroke="#64748b" stroke-width="4" opacity="0.55"/>
            <line x1="308" y1="150" x2="352" y2="210" stroke="#64748b"
              stroke-width="3" opacity="0.4"/>
            <line x1="352" y1="150" x2="308" y2="210" stroke="#64748b"
              stroke-width="3" opacity="0.4"/>
    <text x="180" y="280" font-family="Liberation Sans, DejaVu Sans, sans-serif" font-size="19" fill="#64748b"
          text-anchor="middle">a glyph the device can&#8217;t draw</text></g>
</svg>