<svg xmlns="http://www.w3.org/2000/svg" viewBox="0 0 1200 340"
     width="1200" height="340" role="img">
  
  <defs>
    <linearGradient id="ghabout" x1="0" y1="0" x2="1" y2="1">
      <stop offset="0" stop-color="#8b5cf6"/>
      <stop offset="1" stop-color="#3b82f6"/>
    </linearGradient>
    <linearGradient id="gvhabout" x1="0" y1="0" x2="0" y2="1">
      <stop offset="0" stop-color="#8b5cf6"/>
      <stop offset="1" stop-color="#3b82f6"/>
    </linearGradient>
    <radialGradient id="glowhabout" cx="0.5" cy="0.5" r="0.5">
      <stop offset="0" stop-color="#8b5cf6" stop-opacity="0.18"/>
      <stop offset="1" stop-color="#8b5cf6" stop-opacity="0"/>
    </radialGradient>
    <pattern id="dotshabout" width="22" height="22" patternUnits="userSpaceOnUse">
      <circle cx="2" cy="2" r="1.4" fill="#1a1a2e" opacity="0.06"/>
    </pattern>
  </defs>
  <rect width="1200" height="340" rx="20" fill="#FBFBFE"/>
  <rect width="1200" height="340" rx="20" fill="url(#dotshabout)"/>
  <circle cx="1010" cy="60" r="260" fill="url(#glowhabout)"/>
  <rect x="0" y="0" width="8" height="340" fill="url(#gvhabout)"/>
  <g transform="translate(740 -10) scale(1.02)">
    <g stroke="#8b5cf6" stroke-width="1.5" opacity="0.35">
      <line x1="78" y1="92" x2="180" y2="158"/>
      <line x1="180" y1="158" x2="296" y2="100"/>
      <line x1="180" y1="158" x2="124" y2="276"/>
      <line x1="180" y1="158" x2="282" y2="256"/>
    </g>
    <text x="78" y="108" font-family="Liberation Sans, DejaVu Sans, sans-serif" font-size="60" font-weight="700"
          fill="none" stroke="#1a1a2e" stroke-width="2" text-anchor="middle">A</text>
    <text x="298" y="116" font-family="Georgia, 'Liberation Serif', 'DejaVu Serif', serif" font-size="58" font-style="italic"
          fill="#3b82f6" text-anchor="middle">g</text>
    <text x="124" y="292" font-family="Liberation Sans, DejaVu Sans, sans-serif" font-size="54" font-weight="700"
          fill="#64748b" text-anchor="middle">x</text>
    <text x="282" y="272" font-family="DejaVu Sans, sans-serif" font-size="52"
          fill="#1a1a2e" text-anchor="middle">★</text>
    <circle cx="180" cy="158" r="50" fill="url(#ghabout)"/>
    <text x="180" y="178" font-family="Liberation Sans, DejaVu Sans, sans-serif" font-size="52" font-weight="700"
          fill="#fff" text-anchor="middle">U</text></g>
  <g transform="translate(420 -10) scale(0.62)" opacity="0.10">
    <g stroke="#8b5cf6" stroke-width="1.5" opacity="0.35">
      <line x1="78" y1="92" x2="180" y2="158"/>
      <line x1="180" y1="158" x2="296" y2="100"/>
      <line x1="180" y1="158" x2="124" y2="276"/>
      <line x1="180" y1="158" x2="282" y2="256"/>
    </g>
    <text x="78" y="108" font-family="Liberation Sans, DejaVu Sans, sans-serif" font-size="60" font-weight="700"
          fill="none" stroke="#1a1a2e" stroke-width="2" text-anchor="middle">A</text>
    <text x="298" y="116" font-family="Georgia, 'Liberation Serif', 'DejaVu Serif', serif" font-size="58" font-style="italic"
          fill="#3b82f6" text-anchor="middle">g</text>
    <text x="124" y="292" font-family="Liberation Sans, DejaVu Sans, sans-serif" font-size="54" font-weight="700"
          fill="#64748b" text-anchor="middle">x</text>
    <text x="282" y="272" font-family="DejaVu Sans, sans-serif" font-size="52"
          fill="#1a1a2e" text-anchor="middle">★</text>
    <circle cx="180" cy="158" r="50" fill="url(#ghabout)"/>
    <text x="180" y="178" font-family="Liberation Sans, DejaVu Sans, sans-serif" font-size="52" font-weight="700"
          fill="#fff" text-anchor="middle">U</text></g>
</svg>