<svg xmlns="http://www.w3.org/2000/svg" viewBox="0 0 1200 340"
     width="1200" height="340" role="img">
  
  <defs>
    <linearGradient id="gheventsgr" x1="0" y1="0" x2="1" y2="1">
      <stop offset="0" stop-color="#8b5cf6"/>
      <stop offset="1" stop-color="#3b82f6"/>
    </linearGradient>
    <linearGradient id="gvheventsgr" x1="0" y1="0" x2="0" y2="1">
      <stop offset="0" stop-color="#8b5cf6"/>
      <stop offset="1" stop-color="#3b82f6"/>
    </linearGradient>
    <radialGradient id="glowheventsgr" cx="0.5" cy="0.5" r="0.5">
      <stop offset="0" stop-color="#8b5cf6" stop-opacity="0.18"/>
      <stop offset="1" stop-color="#8b5cf6" stop-opacity="0"/>
    </radialGradient>
    <pattern id="dotsheventsgr" width="22" height="22" patternUnits="userSpaceOnUse">
      <circle cx="2" cy="2" r="1.4" fill="#1a1a2e" opacity="0.06"/>
    </pattern>
  </defs>
  <rect width="1200" height="340" rx="20" fill="#FBFBFE"/>
  <rect width="1200" height="340" rx="20" fill="url(#dotsheventsgr)"/>
  <circle cx="1010" cy="60" r="260" fill="url(#glowheventsgr)"/>
  <rect x="0" y="0" width="8" height="340" fill="url(#gvheventsgr)"/>
  <g transform="translate(740 -10) scale(1.02)">
    <path d="M180 108 L296 156 L180 204 L64 156 Z" fill="url(#gheventsgr)"/>
    <path d="M108 176 L108 232 q72 40 144 0 L252 176" stroke="#8b5cf6"
          stroke-width="12" fill="none" stroke-linejoin="round" opacity="0.85"/>
    <path d="M290 158 L290 224" stroke="#3b82f6" stroke-width="8"
          fill="none" stroke-linecap="round"/>
    <circle cx="290" cy="232" r="12" fill="#3b82f6"/></g>
  <g transform="translate(420 -10) scale(0.62)" opacity="0.10">
    <path d="M180 108 L296 156 L180 204 L64 156 Z" fill="url(#gheventsgr)"/>
    <path d="M108 176 L108 232 q72 40 144 0 L252 176" stroke="#8b5cf6"
          stroke-width="12" fill="none" stroke-linejoin="round" opacity="0.85"/>
    <path d="M290 158 L290 224" stroke="#3b82f6" stroke-width="8"
          fill="none" stroke-linecap="round"/>
    <circle cx="290" cy="232" r="12" fill="#3b82f6"/></g>
</svg>