<svg xmlns="http://www.w3.org/2000/svg" viewBox="0 0 1200 340"
     width="1200" height="340" role="img">
  
  <defs>
    <linearGradient id="ghfrusecas" x1="0" y1="0" x2="1" y2="1">
      <stop offset="0" stop-color="#8b5cf6"/>
      <stop offset="1" stop-color="#3b82f6"/>
    </linearGradient>
    <linearGradient id="gvhfrusecas" x1="0" y1="0" x2="0" y2="1">
      <stop offset="0" stop-color="#8b5cf6"/>
      <stop offset="1" stop-color="#3b82f6"/>
    </linearGradient>
    <radialGradient id="glowhfrusecas" cx="0.5" cy="0.5" r="0.5">
      <stop offset="0" stop-color="#8b5cf6" stop-opacity="0.18"/>
      <stop offset="1" stop-color="#8b5cf6" stop-opacity="0"/>
    </radialGradient>
    <pattern id="dotshfrusecas" width="22" height="22" patternUnits="userSpaceOnUse">
      <circle cx="2" cy="2" r="1.4" fill="#1a1a2e" opacity="0.06"/>
    </pattern>
  </defs>
  <rect width="1200" height="340" rx="20" fill="#FBFBFE"/>
  <rect width="1200" height="340" rx="20" fill="url(#dotshfrusecas)"/>
  <circle cx="1010" cy="60" r="260" fill="url(#glowhfrusecas)"/>
  <rect x="0" y="0" width="8" height="340" fill="url(#gvhfrusecas)"/>
  <g transform="translate(740 -10) scale(1.02)"><text x="60" y="190" font-family="Liberation Sans, DejaVu Sans, sans-serif" font-size="56" font-weight="700" fill="url(#gvhfrusecas)">Z</text><line x1="66" y1="150" x2="78" y2="142" stroke="#1a1a2e" stroke-width="2" opacity="0.50"/><line x1="66" y1="136" x2="78" y2="128" stroke="#1a1a2e" stroke-width="2" opacity="0.40"/><line x1="66" y1="122" x2="78" y2="114" stroke="#1a1a2e" stroke-width="2" opacity="0.30"/><line x1="66" y1="108" x2="78" y2="100" stroke="#1a1a2e" stroke-width="2" opacity="0.20"/><line x1="68" y1="210" x2="76" y2="217" stroke="#8b5cf6" stroke-width="2" opacity="0.50"/><line x1="68" y1="223" x2="76" y2="230" stroke="#8b5cf6" stroke-width="2" opacity="0.40"/><line x1="68" y1="236" x2="76" y2="243" stroke="#8b5cf6" stroke-width="2" opacity="0.30"/><line x1="68" y1="249" x2="76" y2="256" stroke="#8b5cf6" stroke-width="2" opacity="0.20"/><text x="110" y="190" font-family="Liberation Sans, DejaVu Sans, sans-serif" font-size="56" font-weight="700" fill="url(#gvhfrusecas)">A</text><line x1="116" y1="150" x2="128" y2="142" stroke="#1a1a2e" stroke-width="2" opacity="0.50"/><line x1="116" y1="136" x2="128" y2="128" stroke="#1a1a2e" stroke-width="2" opacity="0.40"/><line x1="116" y1="122" x2="128" y2="114" stroke="#1a1a2e" stroke-width="2" opacity="0.30"/><line x1="116" y1="108" x2="128" y2="100" stroke="#1a1a2e" stroke-width="2" opacity="0.20"/><line x1="118" y1="210" x2="126" y2="217" stroke="#8b5cf6" stroke-width="2" opacity="0.50"/><line x1="118" y1="223" x2="126" y2="230" stroke="#8b5cf6" stroke-width="2" opacity="0.40"/><line x1="118" y1="236" x2="126" y2="243" stroke="#8b5cf6" stroke-width="2" opacity="0.30"/><line x1="118" y1="249" x2="126" y2="256" stroke="#8b5cf6" stroke-width="2" opacity="0.20"/><text x="160" y="190" font-family="Liberation Sans, DejaVu Sans, sans-serif" font-size="56" font-weight="700" fill="url(#gvhfrusecas)">L</text><line x1="166" y1="150" x2="178" y2="142" stroke="#1a1a2e" stroke-width="2" opacity="0.50"/><line x1="166" y1="136" x2="178" y2="128" stroke="#1a1a2e" stroke-width="2" opacity="0.40"/><line x1="166" y1="122" x2="178" y2="114" stroke="#1a1a2e" stroke-width="2" opacity="0.30"/><line x1="166" y1="108" x2="178" y2="100" stroke="#1a1a2e" stroke-width="2" opacity="0.20"/><line x1="168" y1="210" x2="176" y2="217" stroke="#8b5cf6" stroke-width="2" opacity="0.50"/><line x1="168" y1="223" x2="176" y2="230" stroke="#8b5cf6" stroke-width="2" opacity="0.40"/><line x1="168" y1="236" x2="176" y2="243" stroke="#8b5cf6" stroke-width="2" opacity="0.30"/><line x1="168" y1="249" x2="176" y2="256" stroke="#8b5cf6" stroke-width="2" opacity="0.20"/><text x="210" y="190" font-family="Liberation Sans, DejaVu Sans, sans-serif" font-size="56" font-weight="700" fill="url(#gvhfrusecas)">G</text><line x1="216" y1="150" x2="228" y2="142" stroke="#1a1a2e" stroke-width="2" opacity="0.50"/><line x1="216" y1="136" x2="228" y2="128" stroke="#1a1a2e" stroke-width="2" opacity="0.40"/><line x1="216" y1="122" x2="228" y2="114" stroke="#1a1a2e" stroke-width="2" opacity="0.30"/><line x1="216" y1="108" x2="228" y2="100" stroke="#1a1a2e" stroke-width="2" opacity="0.20"/><line x1="218" y1="210" x2="226" y2="217" stroke="#8b5cf6" stroke-width="2" opacity="0.50"/><line x1="218" y1="223" x2="226" y2="230" stroke="#8b5cf6" stroke-width="2" opacity="0.40"/><line x1="218" y1="236" x2="226" y2="243" stroke="#8b5cf6" stroke-width="2" opacity="0.30"/><line x1="218" y1="249" x2="226" y2="256" stroke="#8b5cf6" stroke-width="2" opacity="0.20"/><text x="260" y="190" font-family="Liberation Sans, DejaVu Sans, sans-serif" font-size="56" font-weight="700" fill="url(#gvhfrusecas)">O</text><line x1="266" y1="150" x2="278" y2="142" stroke="#1a1a2e" stroke-width="2" opacity="0.50"/><line x1="266" y1="136" x2="278" y2="128" stroke="#1a1a2e" stroke-width="2" opacity="0.40"/><line x1="266" y1="122" x2="278" y2="114" stroke="#1a1a2e" stroke-width="2" opacity="0.30"/><line x1="266" y1="108" x2="278" y2="100" stroke="#1a1a2e" stroke-width="2" opacity="0.20"/><line x1="268" y1="210" x2="276" y2="217" stroke="#8b5cf6" stroke-width="2" opacity="0.50"/><line x1="268" y1="223" x2="276" y2="230" stroke="#8b5cf6" stroke-width="2" opacity="0.40"/><line x1="268" y1="236" x2="276" y2="243" stroke="#8b5cf6" stroke-width="2" opacity="0.30"/><line x1="268" y1="249" x2="276" y2="256" stroke="#8b5cf6" stroke-width="2" opacity="0.20"/></g>
  <g transform="translate(420 -10) scale(0.62)" opacity="0.10"><text x="60" y="190" font-family="Liberation Sans, DejaVu Sans, sans-serif" font-size="56" font-weight="700" fill="url(#gvhfrusecas)">Z</text><line x1="66" y1="150" x2="78" y2="142" stroke="#1a1a2e" stroke-width="2" opacity="0.50"/><line x1="66" y1="136" x2="78" y2="128" stroke="#1a1a2e" stroke-width="2" opacity="0.40"/><line x1="66" y1="122" x2="78" y2="114" stroke="#1a1a2e" stroke-width="2" opacity="0.30"/><line x1="66" y1="108" x2="78" y2="100" stroke="#1a1a2e" stroke-width="2" opacity="0.20"/><line x1="68" y1="210" x2="76" y2="217" stroke="#8b5cf6" stroke-width="2" opacity="0.50"/><line x1="68" y1="223" x2="76" y2="230" stroke="#8b5cf6" stroke-width="2" opacity="0.40"/><line x1="68" y1="236" x2="76" y2="243" stroke="#8b5cf6" stroke-width="2" opacity="0.30"/><line x1="68" y1="249" x2="76" y2="256" stroke="#8b5cf6" stroke-width="2" opacity="0.20"/><text x="110" y="190" font-family="Liberation Sans, DejaVu Sans, sans-serif" font-size="56" font-weight="700" fill="url(#gvhfrusecas)">A</text><line x1="116" y1="150" x2="128" y2="142" stroke="#1a1a2e" stroke-width="2" opacity="0.50"/><line x1="116" y1="136" x2="128" y2="128" stroke="#1a1a2e" stroke-width="2" opacity="0.40"/><line x1="116" y1="122" x2="128" y2="114" stroke="#1a1a2e" stroke-width="2" opacity="0.30"/><line x1="116" y1="108" x2="128" y2="100" stroke="#1a1a2e" stroke-width="2" opacity="0.20"/><line x1="118" y1="210" x2="126" y2="217" stroke="#8b5cf6" stroke-width="2" opacity="0.50"/><line x1="118" y1="223" x2="126" y2="230" stroke="#8b5cf6" stroke-width="2" opacity="0.40"/><line x1="118" y1="236" x2="126" y2="243" stroke="#8b5cf6" stroke-width="2" opacity="0.30"/><line x1="118" y1="249" x2="126" y2="256" stroke="#8b5cf6" stroke-width="2" opacity="0.20"/><text x="160" y="190" font-family="Liberation Sans, DejaVu Sans, sans-serif" font-size="56" font-weight="700" fill="url(#gvhfrusecas)">L</text><line x1="166" y1="150" x2="178" y2="142" stroke="#1a1a2e" stroke-width="2" opacity="0.50"/><line x1="166" y1="136" x2="178" y2="128" stroke="#1a1a2e" stroke-width="2" opacity="0.40"/><line x1="166" y1="122" x2="178" y2="114" stroke="#1a1a2e" stroke-width="2" opacity="0.30"/><line x1="166" y1="108" x2="178" y2="100" stroke="#1a1a2e" stroke-width="2" opacity="0.20"/><line x1="168" y1="210" x2="176" y2="217" stroke="#8b5cf6" stroke-width="2" opacity="0.50"/><line x1="168" y1="223" x2="176" y2="230" stroke="#8b5cf6" stroke-width="2" opacity="0.40"/><line x1="168" y1="236" x2="176" y2="243" stroke="#8b5cf6" stroke-width="2" opacity="0.30"/><line x1="168" y1="249" x2="176" y2="256" stroke="#8b5cf6" stroke-width="2" opacity="0.20"/><text x="210" y="190" font-family="Liberation Sans, DejaVu Sans, sans-serif" font-size="56" font-weight="700" fill="url(#gvhfrusecas)">G</text><line x1="216" y1="150" x2="228" y2="142" stroke="#1a1a2e" stroke-width="2" opacity="0.50"/><line x1="216" y1="136" x2="228" y2="128" stroke="#1a1a2e" stroke-width="2" opacity="0.40"/><line x1="216" y1="122" x2="228" y2="114" stroke="#1a1a2e" stroke-width="2" opacity="0.30"/><line x1="216" y1="108" x2="228" y2="100" stroke="#1a1a2e" stroke-width="2" opacity="0.20"/><line x1="218" y1="210" x2="226" y2="217" stroke="#8b5cf6" stroke-width="2" opacity="0.50"/><line x1="218" y1="223" x2="226" y2="230" stroke="#8b5cf6" stroke-width="2" opacity="0.40"/><line x1="218" y1="236" x2="226" y2="243" stroke="#8b5cf6" stroke-width="2" opacity="0.30"/><line x1="218" y1="249" x2="226" y2="256" stroke="#8b5cf6" stroke-width="2" opacity="0.20"/><text x="260" y="190" font-family="Liberation Sans, DejaVu Sans, sans-serif" font-size="56" font-weight="700" fill="url(#gvhfrusecas)">O</text><line x1="266" y1="150" x2="278" y2="142" stroke="#1a1a2e" stroke-width="2" opacity="0.50"/><line x1="266" y1="136" x2="278" y2="128" stroke="#1a1a2e" stroke-width="2" opacity="0.40"/><line x1="266" y1="122" x2="278" y2="114" stroke="#1a1a2e" stroke-width="2" opacity="0.30"/><line x1="266" y1="108" x2="278" y2="100" stroke="#1a1a2e" stroke-width="2" opacity="0.20"/><line x1="268" y1="210" x2="276" y2="217" stroke="#8b5cf6" stroke-width="2" opacity="0.50"/><line x1="268" y1="223" x2="276" y2="230" stroke="#8b5cf6" stroke-width="2" opacity="0.40"/><line x1="268" y1="236" x2="276" y2="243" stroke="#8b5cf6" stroke-width="2" opacity="0.30"/><line x1="268" y1="249" x2="276" y2="256" stroke="#8b5cf6" stroke-width="2" opacity="0.20"/></g>
</svg>