<svg xmlns="http://www.w3.org/2000/svg" viewBox="0 0 1200 340"
     width="1200" height="340" role="img">
  
  <defs>
    <linearGradient id="ghidusecas" x1="0" y1="0" x2="1" y2="1">
      <stop offset="0" stop-color="#8b5cf6"/>
      <stop offset="1" stop-color="#3b82f6"/>
    </linearGradient>
    <linearGradient id="gvhidusecas" x1="0" y1="0" x2="0" y2="1">
      <stop offset="0" stop-color="#8b5cf6"/>
      <stop offset="1" stop-color="#3b82f6"/>
    </linearGradient>
    <radialGradient id="glowhidusecas" cx="0.5" cy="0.5" r="0.5">
      <stop offset="0" stop-color="#8b5cf6" stop-opacity="0.18"/>
      <stop offset="1" stop-color="#8b5cf6" stop-opacity="0"/>
    </radialGradient>
    <pattern id="dotshidusecas" width="22" height="22" patternUnits="userSpaceOnUse">
      <circle cx="2" cy="2" r="1.4" fill="#1a1a2e" opacity="0.06"/>
    </pattern>
  </defs>
  <rect width="1200" height="340" rx="20" fill="#FBFBFE"/>
  <rect width="1200" height="340" rx="20" fill="url(#dotshidusecas)"/>
  <circle cx="1010" cy="60" r="260" fill="url(#glowhidusecas)"/>
  <rect x="0" y="0" width="8" height="340" fill="url(#gvhidusecas)"/>
  <g transform="translate(740 -10) scale(1.02)">
    <rect x="54" y="64" width="252" height="232" rx="26" fill="#fff"
          stroke="#1a1a2e" stroke-opacity="0.10"/>
    <circle cx="116" cy="128" r="34" fill="url(#ghidusecas)"/>
    <rect x="166" y="106" width="118" height="16" rx="8" fill="#1a1a2e"/>
    <rect x="166" y="134" width="86" height="11" rx="5" fill="#64748b" opacity="0.5"/>
    <rect x="80" y="194" width="200" height="11" rx="5" fill="#64748b" opacity="0.4"/>
    <rect x="80" y="216" width="170" height="11" rx="5" fill="#64748b" opacity="0.4"/>
    <rect x="80" y="252" width="120" height="26" rx="13" fill="url(#gvhidusecas)"/></g>
  <g transform="translate(420 -10) scale(0.62)" opacity="0.10">
    <rect x="54" y="64" width="252" height="232" rx="26" fill="#fff"
          stroke="#1a1a2e" stroke-opacity="0.10"/>
    <circle cx="116" cy="128" r="34" fill="url(#ghidusecas)"/>
    <rect x="166" y="106" width="118" height="16" rx="8" fill="#1a1a2e"/>
    <rect x="166" y="134" width="86" height="11" rx="5" fill="#64748b" opacity="0.5"/>
    <rect x="80" y="194" width="200" height="11" rx="5" fill="#64748b" opacity="0.4"/>
    <rect x="80" y="216" width="170" height="11" rx="5" fill="#64748b" opacity="0.4"/>
    <rect x="80" y="252" width="120" height="26" rx="13" fill="url(#gvhidusecas)"/></g>
</svg>