<svg xmlns="http://www.w3.org/2000/svg" viewBox="0 0 1200 340"
     width="1200" height="340" role="img">
  
  <defs>
    <linearGradient id="ghlibraryt" x1="0" y1="0" x2="1" y2="1">
      <stop offset="0" stop-color="#8b5cf6"/>
      <stop offset="1" stop-color="#3b82f6"/>
    </linearGradient>
    <linearGradient id="gvhlibraryt" x1="0" y1="0" x2="0" y2="1">
      <stop offset="0" stop-color="#8b5cf6"/>
      <stop offset="1" stop-color="#3b82f6"/>
    </linearGradient>
    <radialGradient id="glowhlibraryt" cx="0.5" cy="0.5" r="0.5">
      <stop offset="0" stop-color="#8b5cf6" stop-opacity="0.18"/>
      <stop offset="1" stop-color="#8b5cf6" stop-opacity="0"/>
    </radialGradient>
    <pattern id="dotshlibraryt" width="22" height="22" patternUnits="userSpaceOnUse">
      <circle cx="2" cy="2" r="1.4" fill="#1a1a2e" opacity="0.06"/>
    </pattern>
  </defs>
  <rect width="1200" height="340" rx="20" fill="#FBFBFE"/>
  <rect width="1200" height="340" rx="20" fill="url(#dotshlibraryt)"/>
  <circle cx="1010" cy="60" r="260" fill="url(#glowhlibraryt)"/>
  <rect x="0" y="0" width="8" height="340" fill="url(#gvhlibraryt)"/>
  <g transform="translate(740 -10) scale(1.02)">
    <path d="M64 210 l24 -56 q8 -18 28 -18 h128 q20 0 28 18 l24 56 v44 h-32
             a26 26 0 0 1 -52 0 h-64 a26 26 0 0 1 -52 0 h-32 Z" fill="url(#ghlibraryt)"/>
    <path d="M110 158 h60 v34 h-78 Z" fill="#fff" opacity="0.85"/>
    <path d="M186 158 h44 l14 34 h-58 Z" fill="#fff" opacity="0.85"/>
    <circle cx="118" cy="254" r="20" fill="#1a1a2e"/>
    <circle cx="244" cy="254" r="20" fill="#1a1a2e"/></g>
  <g transform="translate(420 -10) scale(0.62)" opacity="0.10">
    <path d="M64 210 l24 -56 q8 -18 28 -18 h128 q20 0 28 18 l24 56 v44 h-32
             a26 26 0 0 1 -52 0 h-64 a26 26 0 0 1 -52 0 h-32 Z" fill="url(#ghlibraryt)"/>
    <path d="M110 158 h60 v34 h-78 Z" fill="#fff" opacity="0.85"/>
    <path d="M186 158 h44 l14 34 h-58 Z" fill="#fff" opacity="0.85"/>
    <circle cx="118" cy="254" r="20" fill="#1a1a2e"/>
    <circle cx="244" cy="254" r="20" fill="#1a1a2e"/></g>
</svg>