<svg xmlns="http://www.w3.org/2000/svg" viewBox="0 0 1200 340"
     width="1200" height="340" role="img">
  
  <defs>
    <linearGradient id="ghlibrarye" x1="0" y1="0" x2="1" y2="1">
      <stop offset="0" stop-color="#8b5cf6"/>
      <stop offset="1" stop-color="#3b82f6"/>
    </linearGradient>
    <linearGradient id="gvhlibrarye" x1="0" y1="0" x2="0" y2="1">
      <stop offset="0" stop-color="#8b5cf6"/>
      <stop offset="1" stop-color="#3b82f6"/>
    </linearGradient>
    <radialGradient id="glowhlibrarye" cx="0.5" cy="0.5" r="0.5">
      <stop offset="0" stop-color="#8b5cf6" stop-opacity="0.18"/>
      <stop offset="1" stop-color="#8b5cf6" stop-opacity="0"/>
    </radialGradient>
    <pattern id="dotshlibrarye" width="22" height="22" patternUnits="userSpaceOnUse">
      <circle cx="2" cy="2" r="1.4" fill="#1a1a2e" opacity="0.06"/>
    </pattern>
  </defs>
  <rect width="1200" height="340" rx="20" fill="#FBFBFE"/>
  <rect width="1200" height="340" rx="20" fill="url(#dotshlibrarye)"/>
  <circle cx="1010" cy="60" r="260" fill="url(#glowhlibrarye)"/>
  <rect x="0" y="0" width="8" height="340" fill="url(#gvhlibrarye)"/>
  <g transform="translate(740 -10) scale(1.02)">
    <rect x="60" y="64" width="34" height="232" rx="8" fill="#64748b" opacity="0.16"/>
    <rect x="266" y="64" width="34" height="232" rx="8" fill="#64748b" opacity="0.16"/>
    <circle cx="180" cy="120" r="42" fill="none" stroke="url(#ghlibrarye)" stroke-width="22"/>
    <rect x="168" y="156" width="24" height="148" rx="10" fill="url(#gvhlibrarye)"/>
    <rect x="112" y="196" width="136" height="24" rx="10" fill="url(#gvhlibrarye)"/></g>
  <g transform="translate(420 -10) scale(0.62)" opacity="0.10">
    <rect x="60" y="64" width="34" height="232" rx="8" fill="#64748b" opacity="0.16"/>
    <rect x="266" y="64" width="34" height="232" rx="8" fill="#64748b" opacity="0.16"/>
    <circle cx="180" cy="120" r="42" fill="none" stroke="url(#ghlibrarye)" stroke-width="22"/>
    <rect x="168" y="156" width="24" height="148" rx="10" fill="url(#gvhlibrarye)"/>
    <rect x="112" y="196" width="136" height="24" rx="10" fill="url(#gvhlibrarye)"/></g>
</svg>