<svg xmlns="http://www.w3.org/2000/svg" viewBox="0 0 1200 340"
     width="1200" height="340" role="img">
  
  <defs>
    <linearGradient id="ghlibraryn" x1="0" y1="0" x2="1" y2="1">
      <stop offset="0" stop-color="#8b5cf6"/>
      <stop offset="1" stop-color="#3b82f6"/>
    </linearGradient>
    <linearGradient id="gvhlibraryn" x1="0" y1="0" x2="0" y2="1">
      <stop offset="0" stop-color="#8b5cf6"/>
      <stop offset="1" stop-color="#3b82f6"/>
    </linearGradient>
    <radialGradient id="glowhlibraryn" cx="0.5" cy="0.5" r="0.5">
      <stop offset="0" stop-color="#8b5cf6" stop-opacity="0.18"/>
      <stop offset="1" stop-color="#8b5cf6" stop-opacity="0"/>
    </radialGradient>
    <pattern id="dotshlibraryn" width="22" height="22" patternUnits="userSpaceOnUse">
      <circle cx="2" cy="2" r="1.4" fill="#1a1a2e" opacity="0.06"/>
    </pattern>
  </defs>
  <rect width="1200" height="340" rx="20" fill="#FBFBFE"/>
  <rect width="1200" height="340" rx="20" fill="url(#dotshlibraryn)"/>
  <circle cx="1010" cy="60" r="260" fill="url(#glowhlibraryn)"/>
  <rect x="0" y="0" width="8" height="340" fill="url(#gvhlibraryn)"/>
  <g transform="translate(740 -10) scale(1.02)"><path d="M96 70 L96 290 M96 70 L168 150 M96 200 L160 150" fill="none" stroke="#1a1a2e" stroke-width="14" stroke-linecap="round" stroke-linejoin="round" opacity="0.85"/><path d="M210 70 L210 290 M210 70 L276 110 L210 150 M210 150 L276 110" fill="none" stroke="url(#gvhlibraryn)" stroke-width="14" stroke-linecap="round" stroke-linejoin="round" opacity="1"/><path d="M300 70 L300 290" fill="none" stroke="#1a1a2e" stroke-width="14" stroke-linecap="round" stroke-linejoin="round" opacity="0.85"/></g>
  <g transform="translate(420 -10) scale(0.62)" opacity="0.10"><path d="M96 70 L96 290 M96 70 L168 150 M96 200 L160 150" fill="none" stroke="#1a1a2e" stroke-width="14" stroke-linecap="round" stroke-linejoin="round" opacity="0.85"/><path d="M210 70 L210 290 M210 70 L276 110 L210 150 M210 150 L276 110" fill="none" stroke="url(#gvhlibraryn)" stroke-width="14" stroke-linecap="round" stroke-linejoin="round" opacity="1"/><path d="M300 70 L300 290" fill="none" stroke="#1a1a2e" stroke-width="14" stroke-linecap="round" stroke-linejoin="round" opacity="0.85"/></g>
</svg>