<svg xmlns="http://www.w3.org/2000/svg" viewBox="0 0 1200 340"
     width="1200" height="340" role="img">
  
  <defs>
    <linearGradient id="ghlibraryb" x1="0" y1="0" x2="1" y2="1">
      <stop offset="0" stop-color="#8b5cf6"/>
      <stop offset="1" stop-color="#3b82f6"/>
    </linearGradient>
    <linearGradient id="gvhlibraryb" x1="0" y1="0" x2="0" y2="1">
      <stop offset="0" stop-color="#8b5cf6"/>
      <stop offset="1" stop-color="#3b82f6"/>
    </linearGradient>
    <radialGradient id="glowhlibraryb" cx="0.5" cy="0.5" r="0.5">
      <stop offset="0" stop-color="#8b5cf6" stop-opacity="0.18"/>
      <stop offset="1" stop-color="#8b5cf6" stop-opacity="0"/>
    </radialGradient>
    <pattern id="dotshlibraryb" width="22" height="22" patternUnits="userSpaceOnUse">
      <circle cx="2" cy="2" r="1.4" fill="#1a1a2e" opacity="0.06"/>
    </pattern>
  </defs>
  <rect width="1200" height="340" rx="20" fill="#FBFBFE"/>
  <rect width="1200" height="340" rx="20" fill="url(#dotshlibraryb)"/>
  <circle cx="1010" cy="60" r="260" fill="url(#glowhlibraryb)"/>
  <rect x="0" y="0" width="8" height="340" fill="url(#gvhlibraryb)"/>
  <g transform="translate(740 -10) scale(1.02)">
    <circle cx="180" cy="128" r="46" fill="url(#ghlibraryb)"/>
    <path d="M96 296 a84 84 0 0 1 168 0 Z" fill="url(#gvhlibraryb)"/>
    <circle cx="262" cy="110" r="26" fill="#fff" stroke="#1a1a2e" stroke-opacity="0.12"/>
    <path d="M250 110 l8 8 l16 -18" fill="none" stroke="#8b5cf6" stroke-width="6"
          stroke-linecap="round" stroke-linejoin="round"/></g>
  <g transform="translate(420 -10) scale(0.62)" opacity="0.10">
    <circle cx="180" cy="128" r="46" fill="url(#ghlibraryb)"/>
    <path d="M96 296 a84 84 0 0 1 168 0 Z" fill="url(#gvhlibraryb)"/>
    <circle cx="262" cy="110" r="26" fill="#fff" stroke="#1a1a2e" stroke-opacity="0.12"/>
    <path d="M250 110 l8 8 l16 -18" fill="none" stroke="#8b5cf6" stroke-width="6"
          stroke-linecap="round" stroke-linejoin="round"/></g>
</svg>