<svg xmlns="http://www.w3.org/2000/svg" viewBox="0 0 1200 340"
     width="1200" height="340" role="img">
  
  <defs>
    <linearGradient id="ghlibrarym" x1="0" y1="0" x2="1" y2="1">
      <stop offset="0" stop-color="#8b5cf6"/>
      <stop offset="1" stop-color="#3b82f6"/>
    </linearGradient>
    <linearGradient id="gvhlibrarym" x1="0" y1="0" x2="0" y2="1">
      <stop offset="0" stop-color="#8b5cf6"/>
      <stop offset="1" stop-color="#3b82f6"/>
    </linearGradient>
    <radialGradient id="glowhlibrarym" cx="0.5" cy="0.5" r="0.5">
      <stop offset="0" stop-color="#8b5cf6" stop-opacity="0.18"/>
      <stop offset="1" stop-color="#8b5cf6" stop-opacity="0"/>
    </radialGradient>
    <pattern id="dotshlibrarym" width="22" height="22" patternUnits="userSpaceOnUse">
      <circle cx="2" cy="2" r="1.4" fill="#1a1a2e" opacity="0.06"/>
    </pattern>
  </defs>
  <rect width="1200" height="340" rx="20" fill="#FBFBFE"/>
  <rect width="1200" height="340" rx="20" fill="url(#dotshlibrarym)"/>
  <circle cx="1010" cy="60" r="260" fill="url(#glowhlibrarym)"/>
  <rect x="0" y="0" width="8" height="340" fill="url(#gvhlibrarym)"/>
  <g transform="translate(740 -10) scale(1.02)">
    <circle cx="180" cy="180" r="92" fill="url(#ghlibrarym)"/>
    <path d="M180 110 l40 30 -16 48 h-48 l-16 -48 Z" fill="#fff"/>
    <path d="M180 100 v-8 M252 158 l8 -4 M232 250 l6 6 M128 250 l-6 6 M108 158 l-8 -4"
          stroke="#fff" stroke-width="6" stroke-linecap="round" opacity="0.7"/></g>
  <g transform="translate(420 -10) scale(0.62)" opacity="0.10">
    <circle cx="180" cy="180" r="92" fill="url(#ghlibrarym)"/>
    <path d="M180 110 l40 30 -16 48 h-48 l-16 -48 Z" fill="#fff"/>
    <path d="M180 100 v-8 M252 158 l8 -4 M232 250 l6 6 M128 250 l-6 6 M108 158 l-8 -4"
          stroke="#fff" stroke-width="6" stroke-linecap="round" opacity="0.7"/></g>
</svg>