<svg xmlns="http://www.w3.org/2000/svg" viewBox="0 0 1200 340"
     width="1200" height="340" role="img">
  
  <defs>
    <linearGradient id="ghlibraryg" x1="0" y1="0" x2="1" y2="1">
      <stop offset="0" stop-color="#8b5cf6"/>
      <stop offset="1" stop-color="#3b82f6"/>
    </linearGradient>
    <linearGradient id="gvhlibraryg" x1="0" y1="0" x2="0" y2="1">
      <stop offset="0" stop-color="#8b5cf6"/>
      <stop offset="1" stop-color="#3b82f6"/>
    </linearGradient>
    <radialGradient id="glowhlibraryg" cx="0.5" cy="0.5" r="0.5">
      <stop offset="0" stop-color="#8b5cf6" stop-opacity="0.18"/>
      <stop offset="1" stop-color="#8b5cf6" stop-opacity="0"/>
    </radialGradient>
    <pattern id="dotshlibraryg" width="22" height="22" patternUnits="userSpaceOnUse">
      <circle cx="2" cy="2" r="1.4" fill="#1a1a2e" opacity="0.06"/>
    </pattern>
  </defs>
  <rect width="1200" height="340" rx="20" fill="#FBFBFE"/>
  <rect width="1200" height="340" rx="20" fill="url(#dotshlibraryg)"/>
  <circle cx="1010" cy="60" r="260" fill="url(#glowhlibraryg)"/>
  <rect x="0" y="0" width="8" height="340" fill="url(#gvhlibraryg)"/>
  <g transform="translate(740 -10) scale(1.02)">
    <g>
      <rect x="34" y="66" width="180" height="62" rx="18" fill="#fff"
            stroke="#1a1a2e" stroke-opacity="0.12"/>
      <rect x="56" y="88" width="120" height="9" rx="4" fill="#64748b" opacity="0.5"/>
      <rect x="56" y="106" width="78" height="9" rx="4" fill="#64748b" opacity="0.3"/>
    </g>
    <g>
      <rect x="92" y="146" width="232" height="80" rx="22" fill="url(#ghlibraryg)"/>
      <rect x="116" y="172" width="150" height="11" rx="5" fill="#fff"/>
      <rect x="116" y="194" width="104" height="11" rx="5" fill="#fff" opacity="0.7"/>
      <polygon points="120,224 120,252 148,224" fill="url(#ghlibraryg)"/>
    </g>
    <g>
      <rect x="54" y="246" width="172" height="58" rx="18" fill="#fff"
            stroke="#1a1a2e" stroke-opacity="0.12"/>
      <rect x="76" y="266" width="112" height="9" rx="4" fill="#64748b" opacity="0.5"/>
    </g></g>
  <g transform="translate(420 -10) scale(0.62)" opacity="0.10">
    <g>
      <rect x="34" y="66" width="180" height="62" rx="18" fill="#fff"
            stroke="#1a1a2e" stroke-opacity="0.12"/>
      <rect x="56" y="88" width="120" height="9" rx="4" fill="#64748b" opacity="0.5"/>
      <rect x="56" y="106" width="78" height="9" rx="4" fill="#64748b" opacity="0.3"/>
    </g>
    <g>
      <rect x="92" y="146" width="232" height="80" rx="22" fill="url(#ghlibraryg)"/>
      <rect x="116" y="172" width="150" height="11" rx="5" fill="#fff"/>
      <rect x="116" y="194" width="104" height="11" rx="5" fill="#fff" opacity="0.7"/>
      <polygon points="120,224 120,252 148,224" fill="url(#ghlibraryg)"/>
    </g>
    <g>
      <rect x="54" y="246" width="172" height="58" rx="18" fill="#fff"
            stroke="#1a1a2e" stroke-opacity="0.12"/>
      <rect x="76" y="266" width="112" height="9" rx="4" fill="#64748b" opacity="0.5"/>
    </g></g>
</svg>