<svg xmlns="http://www.w3.org/2000/svg" viewBox="0 0 1200 340"
     width="1200" height="340" role="img">
  
  <defs>
    <linearGradient id="ghlibraryt" x1="0" y1="0" x2="1" y2="1">
      <stop offset="0" stop-color="#8b5cf6"/>
      <stop offset="1" stop-color="#3b82f6"/>
    </linearGradient>
    <linearGradient id="gvhlibraryt" x1="0" y1="0" x2="0" y2="1">
      <stop offset="0" stop-color="#8b5cf6"/>
      <stop offset="1" stop-color="#3b82f6"/>
    </linearGradient>
    <radialGradient id="glowhlibraryt" cx="0.5" cy="0.5" r="0.5">
      <stop offset="0" stop-color="#8b5cf6" stop-opacity="0.18"/>
      <stop offset="1" stop-color="#8b5cf6" stop-opacity="0"/>
    </radialGradient>
    <pattern id="dotshlibraryt" width="22" height="22" patternUnits="userSpaceOnUse">
      <circle cx="2" cy="2" r="1.4" fill="#1a1a2e" opacity="0.06"/>
    </pattern>
  </defs>
  <rect width="1200" height="340" rx="20" fill="#FBFBFE"/>
  <rect width="1200" height="340" rx="20" fill="url(#dotshlibraryt)"/>
  <circle cx="1010" cy="60" r="260" fill="url(#glowhlibraryt)"/>
  <rect x="0" y="0" width="8" height="340" fill="url(#gvhlibraryt)"/>
  <g transform="translate(740 -10) scale(1.02)">
    <rect x="46" y="78" width="268" height="166" rx="24" fill="url(#ghlibraryt)"/>
    <circle cx="180" cy="161" r="46" fill="#fff"/>
    <polygon points="166,138 166,184 206,161" fill="url(#ghlibraryt)"/>
    <rect x="46" y="262" width="190" height="13" rx="6" fill="#64748b" opacity="0.5"/>
    <rect x="46" y="288" width="120" height="13" rx="6" fill="#64748b" opacity="0.3"/></g>
  <g transform="translate(420 -10) scale(0.62)" opacity="0.10">
    <rect x="46" y="78" width="268" height="166" rx="24" fill="url(#ghlibraryt)"/>
    <circle cx="180" cy="161" r="46" fill="#fff"/>
    <polygon points="166,138 166,184 206,161" fill="url(#ghlibraryt)"/>
    <rect x="46" y="262" width="190" height="13" rx="6" fill="#64748b" opacity="0.5"/>
    <rect x="46" y="288" width="120" height="13" rx="6" fill="#64748b" opacity="0.3"/></g>
</svg>