<svg xmlns="http://www.w3.org/2000/svg" viewBox="0 0 1200 340"
     width="1200" height="340" role="img">
  
  <defs>
    <linearGradient id="ghlinkedin" x1="0" y1="0" x2="1" y2="1">
      <stop offset="0" stop-color="#8b5cf6"/>
      <stop offset="1" stop-color="#3b82f6"/>
    </linearGradient>
    <linearGradient id="gvhlinkedin" x1="0" y1="0" x2="0" y2="1">
      <stop offset="0" stop-color="#8b5cf6"/>
      <stop offset="1" stop-color="#3b82f6"/>
    </linearGradient>
    <radialGradient id="glowhlinkedin" cx="0.5" cy="0.5" r="0.5">
      <stop offset="0" stop-color="#8b5cf6" stop-opacity="0.18"/>
      <stop offset="1" stop-color="#8b5cf6" stop-opacity="0"/>
    </radialGradient>
    <pattern id="dotshlinkedin" width="22" height="22" patternUnits="userSpaceOnUse">
      <circle cx="2" cy="2" r="1.4" fill="#1a1a2e" opacity="0.06"/>
    </pattern>
  </defs>
  <rect width="1200" height="340" rx="20" fill="#FBFBFE"/>
  <rect width="1200" height="340" rx="20" fill="url(#dotshlinkedin)"/>
  <circle cx="1010" cy="60" r="260" fill="url(#glowhlinkedin)"/>
  <rect x="0" y="0" width="8" height="340" fill="url(#gvhlinkedin)"/>
  <g transform="translate(740 -10) scale(1.02)">
    <rect x="48" y="84" width="232" height="30" rx="9" fill="url(#ghlinkedin)"/>
    <rect x="48" y="138" width="180" height="12" rx="6" fill="#64748b" opacity="0.35"/>
    <rect x="48" y="164" width="216" height="12" rx="6" fill="#64748b" opacity="0.35"/>
    <rect x="48" y="190" width="150" height="12" rx="6" fill="#64748b" opacity="0.35"/>
    <g transform="translate(286 70)">
      <path d="M0 30 L10 8 L20 24 L30 4 L40 24 L50 8 L60 30 Z" fill="url(#ghlinkedin)"/>
    </g></g>
  <g transform="translate(420 -10) scale(0.62)" opacity="0.10">
    <rect x="48" y="84" width="232" height="30" rx="9" fill="url(#ghlinkedin)"/>
    <rect x="48" y="138" width="180" height="12" rx="6" fill="#64748b" opacity="0.35"/>
    <rect x="48" y="164" width="216" height="12" rx="6" fill="#64748b" opacity="0.35"/>
    <rect x="48" y="190" width="150" height="12" rx="6" fill="#64748b" opacity="0.35"/>
    <g transform="translate(286 70)">
      <path d="M0 30 L10 8 L20 24 L30 4 L40 24 L50 8 L60 30 Z" fill="url(#ghlinkedin)"/>
    </g></g>
</svg>