<svg xmlns="http://www.w3.org/2000/svg" viewBox="0 0 1200 340"
     width="1200" height="340" role="img">
  
  <defs>
    <linearGradient id="ghpinteres" x1="0" y1="0" x2="1" y2="1">
      <stop offset="0" stop-color="#8b5cf6"/>
      <stop offset="1" stop-color="#3b82f6"/>
    </linearGradient>
    <linearGradient id="gvhpinteres" x1="0" y1="0" x2="0" y2="1">
      <stop offset="0" stop-color="#8b5cf6"/>
      <stop offset="1" stop-color="#3b82f6"/>
    </linearGradient>
    <radialGradient id="glowhpinteres" cx="0.5" cy="0.5" r="0.5">
      <stop offset="0" stop-color="#8b5cf6" stop-opacity="0.18"/>
      <stop offset="1" stop-color="#8b5cf6" stop-opacity="0"/>
    </radialGradient>
    <pattern id="dotshpinteres" width="22" height="22" patternUnits="userSpaceOnUse">
      <circle cx="2" cy="2" r="1.4" fill="#1a1a2e" opacity="0.06"/>
    </pattern>
  </defs>
  <rect width="1200" height="340" rx="20" fill="#FBFBFE"/>
  <rect width="1200" height="340" rx="20" fill="url(#dotshpinteres)"/>
  <circle cx="1010" cy="60" r="260" fill="url(#glowhpinteres)"/>
  <rect x="0" y="0" width="8" height="340" fill="url(#gvhpinteres)"/>
  <g transform="translate(740 -10) scale(1.02)">
    <rect x="40" y="70" width="120" height="150" rx="20" fill="url(#ghpinteres)"/>
    <rect x="176" y="60" width="120" height="100" rx="20" fill="#fff"
          stroke="#1a1a2e" stroke-opacity="0.12"/>
    <rect x="176" y="176" width="120" height="120" rx="20" fill="#F2F1FB"/>
    <rect x="40" y="236" width="120" height="60" rx="18" fill="#fff"
          stroke="#1a1a2e" stroke-opacity="0.12"/>
    <circle cx="236" cy="236" r="26" fill="url(#gvhpinteres)"/></g>
  <g transform="translate(420 -10) scale(0.62)" opacity="0.10">
    <rect x="40" y="70" width="120" height="150" rx="20" fill="url(#ghpinteres)"/>
    <rect x="176" y="60" width="120" height="100" rx="20" fill="#fff"
          stroke="#1a1a2e" stroke-opacity="0.12"/>
    <rect x="176" y="176" width="120" height="120" rx="20" fill="#F2F1FB"/>
    <rect x="40" y="236" width="120" height="60" rx="18" fill="#fff"
          stroke="#1a1a2e" stroke-opacity="0.12"/>
    <circle cx="236" cy="236" r="26" fill="url(#gvhpinteres)"/></g>
</svg>