<svg xmlns="http://www.w3.org/2000/svg" viewBox="0 0 1200 340"
     width="1200" height="340" role="img">
  
  <defs>
    <linearGradient id="ghpldodruk" x1="0" y1="0" x2="1" y2="1">
      <stop offset="0" stop-color="#8b5cf6"/>
      <stop offset="1" stop-color="#3b82f6"/>
    </linearGradient>
    <linearGradient id="gvhpldodruk" x1="0" y1="0" x2="0" y2="1">
      <stop offset="0" stop-color="#8b5cf6"/>
      <stop offset="1" stop-color="#3b82f6"/>
    </linearGradient>
    <radialGradient id="glowhpldodruk" cx="0.5" cy="0.5" r="0.5">
      <stop offset="0" stop-color="#8b5cf6" stop-opacity="0.18"/>
      <stop offset="1" stop-color="#8b5cf6" stop-opacity="0"/>
    </radialGradient>
    <pattern id="dotshpldodruk" width="22" height="22" patternUnits="userSpaceOnUse">
      <circle cx="2" cy="2" r="1.4" fill="#1a1a2e" opacity="0.06"/>
    </pattern>
  </defs>
  <rect width="1200" height="340" rx="20" fill="#FBFBFE"/>
  <rect width="1200" height="340" rx="20" fill="url(#dotshpldodruk)"/>
  <circle cx="1010" cy="60" r="260" fill="url(#glowhpldodruk)"/>
  <rect x="0" y="0" width="8" height="340" fill="url(#gvhpldodruk)"/>
  <g transform="translate(740 -10) scale(1.02)"><rect x="40" y="80" width="280" height="200" rx="24" fill="none" stroke="#64748b" stroke-width="3" stroke-dasharray="10 8"/><g transform="translate(140 220) rotate(-18)"><rect x="-14" y="-90" width="28" height="100" rx="6" fill="url(#ghpldodruk)"/><path d="M-14 -90 L14 -90 L0 -118 Z" fill="#1a1a2e"/></g><g transform="translate(180 220) rotate(0)"><rect x="-14" y="-90" width="28" height="100" rx="6" fill="#8b5cf6"/><path d="M-14 -90 L14 -90 L0 -118 Z" fill="#1a1a2e"/></g><g transform="translate(220 220) rotate(18)"><rect x="-14" y="-90" width="28" height="100" rx="6" fill="#3b82f6"/><path d="M-14 -90 L14 -90 L0 -118 Z" fill="#1a1a2e"/></g></g>
  <g transform="translate(420 -10) scale(0.62)" opacity="0.10"><rect x="40" y="80" width="280" height="200" rx="24" fill="none" stroke="#64748b" stroke-width="3" stroke-dasharray="10 8"/><g transform="translate(140 220) rotate(-18)"><rect x="-14" y="-90" width="28" height="100" rx="6" fill="url(#ghpldodruk)"/><path d="M-14 -90 L14 -90 L0 -118 Z" fill="#1a1a2e"/></g><g transform="translate(180 220) rotate(0)"><rect x="-14" y="-90" width="28" height="100" rx="6" fill="#8b5cf6"/><path d="M-14 -90 L14 -90 L0 -118 Z" fill="#1a1a2e"/></g><g transform="translate(220 220) rotate(18)"><rect x="-14" y="-90" width="28" height="100" rx="6" fill="#3b82f6"/><path d="M-14 -90 L14 -90 L0 -118 Z" fill="#1a1a2e"/></g></g>
</svg>