<svg xmlns="http://www.w3.org/2000/svg" viewBox="0 0 1200 340"
     width="1200" height="340" role="img">
  
  <defs>
    <linearGradient id="ghprintabl" x1="0" y1="0" x2="1" y2="1">
      <stop offset="0" stop-color="#8b5cf6"/>
      <stop offset="1" stop-color="#3b82f6"/>
    </linearGradient>
    <linearGradient id="gvhprintabl" x1="0" y1="0" x2="0" y2="1">
      <stop offset="0" stop-color="#8b5cf6"/>
      <stop offset="1" stop-color="#3b82f6"/>
    </linearGradient>
    <radialGradient id="glowhprintabl" cx="0.5" cy="0.5" r="0.5">
      <stop offset="0" stop-color="#8b5cf6" stop-opacity="0.18"/>
      <stop offset="1" stop-color="#8b5cf6" stop-opacity="0"/>
    </radialGradient>
    <pattern id="dotshprintabl" width="22" height="22" patternUnits="userSpaceOnUse">
      <circle cx="2" cy="2" r="1.4" fill="#1a1a2e" opacity="0.06"/>
    </pattern>
  </defs>
  <rect width="1200" height="340" rx="20" fill="#FBFBFE"/>
  <rect width="1200" height="340" rx="20" fill="url(#dotshprintabl)"/>
  <circle cx="1010" cy="60" r="260" fill="url(#glowhprintabl)"/>
  <rect x="0" y="0" width="8" height="340" fill="url(#gvhprintabl)"/>
  <g transform="translate(740 -10) scale(1.02)">
    <g transform="rotate(-8 98 144)"><rect x="76" y="120" width="44" height="48" rx="8" fill="url(#ghprintabl)"/><text x="98" y="154" font-family="Liberation Sans, DejaVu Sans, sans-serif" font-size="28" font-weight="800" fill="#fff" text-anchor="middle">D</text></g>
    <g transform="rotate(5 154 144)"><rect x="132" y="120" width="44" height="48" rx="8" fill="url(#ghprintabl)"/><text x="154" y="154" font-family="Liberation Sans, DejaVu Sans, sans-serif" font-size="28" font-weight="800" fill="#fff" text-anchor="middle">R</text></g>
    <g transform="rotate(-4 210 144)"><rect x="188" y="120" width="44" height="48" rx="8" fill="url(#ghprintabl)"/><text x="210" y="154" font-family="Liberation Sans, DejaVu Sans, sans-serif" font-size="28" font-weight="800" fill="#fff" text-anchor="middle">O</text></g>
    <g transform="rotate(7 266 144)"><rect x="244" y="120" width="44" height="48" rx="8" fill="url(#ghprintabl)"/><text x="266" y="154" font-family="Liberation Sans, DejaVu Sans, sans-serif" font-size="28" font-weight="800" fill="#fff" text-anchor="middle">W</text></g>
    <line x1="70" y1="238" x2="290" y2="238" stroke="#64748b" stroke-width="6" stroke-linecap="round"/></g>
  <g transform="translate(420 -10) scale(0.62)" opacity="0.10">
    <g transform="rotate(-8 98 144)"><rect x="76" y="120" width="44" height="48" rx="8" fill="url(#ghprintabl)"/><text x="98" y="154" font-family="Liberation Sans, DejaVu Sans, sans-serif" font-size="28" font-weight="800" fill="#fff" text-anchor="middle">D</text></g>
    <g transform="rotate(5 154 144)"><rect x="132" y="120" width="44" height="48" rx="8" fill="url(#ghprintabl)"/><text x="154" y="154" font-family="Liberation Sans, DejaVu Sans, sans-serif" font-size="28" font-weight="800" fill="#fff" text-anchor="middle">R</text></g>
    <g transform="rotate(-4 210 144)"><rect x="188" y="120" width="44" height="48" rx="8" fill="url(#ghprintabl)"/><text x="210" y="154" font-family="Liberation Sans, DejaVu Sans, sans-serif" font-size="28" font-weight="800" fill="#fff" text-anchor="middle">O</text></g>
    <g transform="rotate(7 266 144)"><rect x="244" y="120" width="44" height="48" rx="8" fill="url(#ghprintabl)"/><text x="266" y="154" font-family="Liberation Sans, DejaVu Sans, sans-serif" font-size="28" font-weight="800" fill="#fff" text-anchor="middle">W</text></g>
    <line x1="70" y1="238" x2="290" y2="238" stroke="#64748b" stroke-width="6" stroke-linecap="round"/></g>
</svg>