<svg xmlns="http://www.w3.org/2000/svg" viewBox="0 0 1200 340"
     width="1200" height="340" role="img">
  
  <defs>
    <linearGradient id="ghterms" x1="0" y1="0" x2="1" y2="1">
      <stop offset="0" stop-color="#8b5cf6"/>
      <stop offset="1" stop-color="#3b82f6"/>
    </linearGradient>
    <linearGradient id="gvhterms" x1="0" y1="0" x2="0" y2="1">
      <stop offset="0" stop-color="#8b5cf6"/>
      <stop offset="1" stop-color="#3b82f6"/>
    </linearGradient>
    <radialGradient id="glowhterms" cx="0.5" cy="0.5" r="0.5">
      <stop offset="0" stop-color="#8b5cf6" stop-opacity="0.18"/>
      <stop offset="1" stop-color="#8b5cf6" stop-opacity="0"/>
    </radialGradient>
    <pattern id="dotshterms" width="22" height="22" patternUnits="userSpaceOnUse">
      <circle cx="2" cy="2" r="1.4" fill="#1a1a2e" opacity="0.06"/>
    </pattern>
  </defs>
  <rect width="1200" height="340" rx="20" fill="#FBFBFE"/>
  <rect width="1200" height="340" rx="20" fill="url(#dotshterms)"/>
  <circle cx="1010" cy="60" r="260" fill="url(#glowhterms)"/>
  <rect x="0" y="0" width="8" height="340" fill="url(#gvhterms)"/>
  <g transform="translate(740 -10) scale(1.02)">
    <rect x="92" y="58" width="176" height="234" rx="14" fill="#fff"
          stroke="#1a1a2e" stroke-opacity="0.12"/>
    <rect x="116" y="86" width="128" height="11" rx="5" fill="#1a1a2e" opacity="0.7"/>
    <rect x="116" y="116" width="128" height="8" rx="4" fill="#64748b" opacity="0.4"/>
    <rect x="116" y="134" width="110" height="8" rx="4" fill="#64748b" opacity="0.4"/>
    <rect x="116" y="152" width="128" height="8" rx="4" fill="#64748b" opacity="0.4"/>
    <rect x="116" y="170" width="92" height="8" rx="4" fill="#64748b" opacity="0.4"/>
    <circle cx="232" cy="248" r="40" fill="url(#ghterms)"/>
    <path d="M214 248 l12 12 l22 -24" fill="none" stroke="#fff" stroke-width="7"
          stroke-linecap="round" stroke-linejoin="round"/></g>
  <g transform="translate(420 -10) scale(0.62)" opacity="0.10">
    <rect x="92" y="58" width="176" height="234" rx="14" fill="#fff"
          stroke="#1a1a2e" stroke-opacity="0.12"/>
    <rect x="116" y="86" width="128" height="11" rx="5" fill="#1a1a2e" opacity="0.7"/>
    <rect x="116" y="116" width="128" height="8" rx="4" fill="#64748b" opacity="0.4"/>
    <rect x="116" y="134" width="110" height="8" rx="4" fill="#64748b" opacity="0.4"/>
    <rect x="116" y="152" width="128" height="8" rx="4" fill="#64748b" opacity="0.4"/>
    <rect x="116" y="170" width="92" height="8" rx="4" fill="#64748b" opacity="0.4"/>
    <circle cx="232" cy="248" r="40" fill="url(#ghterms)"/>
    <path d="M214 248 l12 12 l22 -24" fill="none" stroke="#fff" stroke-width="7"
          stroke-linecap="round" stroke-linejoin="round"/></g>
</svg>