<svg xmlns="http://www.w3.org/2000/svg" viewBox="0 0 1200 340"
     width="1200" height="340" role="img">
  
  <defs>
    <linearGradient id="ghtrinstag" x1="0" y1="0" x2="1" y2="1">
      <stop offset="0" stop-color="#8b5cf6"/>
      <stop offset="1" stop-color="#3b82f6"/>
    </linearGradient>
    <linearGradient id="gvhtrinstag" x1="0" y1="0" x2="0" y2="1">
      <stop offset="0" stop-color="#8b5cf6"/>
      <stop offset="1" stop-color="#3b82f6"/>
    </linearGradient>
    <radialGradient id="glowhtrinstag" cx="0.5" cy="0.5" r="0.5">
      <stop offset="0" stop-color="#8b5cf6" stop-opacity="0.18"/>
      <stop offset="1" stop-color="#8b5cf6" stop-opacity="0"/>
    </radialGradient>
    <pattern id="dotshtrinstag" width="22" height="22" patternUnits="userSpaceOnUse">
      <circle cx="2" cy="2" r="1.4" fill="#1a1a2e" opacity="0.06"/>
    </pattern>
  </defs>
  <rect width="1200" height="340" rx="20" fill="#FBFBFE"/>
  <rect width="1200" height="340" rx="20" fill="url(#dotshtrinstag)"/>
  <circle cx="1010" cy="60" r="260" fill="url(#glowhtrinstag)"/>
  <rect x="0" y="0" width="8" height="340" fill="url(#gvhtrinstag)"/>
  <g transform="translate(740 -10) scale(1.02)">
    <rect x="60" y="116" width="240" height="160" rx="30" fill="url(#ghtrinstag)"/>
    <rect x="120" y="96" width="80" height="34" rx="12" fill="url(#ghtrinstag)"/>
    <circle cx="180" cy="196" r="52" fill="#FBFBFE"/>
    <circle cx="180" cy="196" r="30" fill="url(#gvhtrinstag)"/>
    <circle cx="262" cy="146" r="10" fill="#fff"/></g>
  <g transform="translate(420 -10) scale(0.62)" opacity="0.10">
    <rect x="60" y="116" width="240" height="160" rx="30" fill="url(#ghtrinstag)"/>
    <rect x="120" y="96" width="80" height="34" rx="12" fill="url(#ghtrinstag)"/>
    <circle cx="180" cy="196" r="52" fill="#FBFBFE"/>
    <circle cx="180" cy="196" r="30" fill="url(#gvhtrinstag)"/>
    <circle cx="262" cy="146" r="10" fill="#fff"/></g>
</svg>